<?xml version="1.0" encoding="utf-8"?>
<svg xmlns="http://www.w3.org/2000/svg" viewBox="0 0 500 500" xmlns:bx="https://boxy-svg.com" width="500px" height="500px"><defs><bx:export><bx:file format="svg"/></bx:export></defs><g stroke-width="2.00" fill="none" stroke-linecap="butt" transform="matrix(1, 0, 0, 1, 95.443665, -303.531219)"/><path fill="#1d2a3e" d="M 278.983 45.528 C 278.893 45.807 278.909 46.062 279.016 46.275 C 279.139 46.537 279.344 46.669 279.631 46.677 C 284.189 46.874 288.738 47.473 293.304 48.492 L 296.876 49.001 C 301.441 49.839 305.728 50.709 309.751 51.596 C 311.361 51.957 312.909 52.056 314.387 51.876 L 324.668 55.611 L 355.289 68.536 L 371.942 78.177 C 372.155 78.637 372.393 78.932 372.649 79.072 C 376.574 81.305 380.523 84.204 384.498 87.76 C 385.401 88.565 386.156 88.844 386.78 88.581 C 387.741 90.306 388.915 91.406 390.303 91.874 L 398.769 99.625 L 401.421 102.705 C 401.66 102.984 401.922 103.008 402.21 102.796 C 408.96 97.795 415.776 92.81 422.673 87.842 C 430.967 81.864 439.721 76.28 448.934 71.09 C 452.178 69.284 455.601 67.42 459.215 65.498 C 466.211 61.77 472.797 58.88 478.955 56.843 C 480.203 56.433 481.214 56.621 481.994 57.427 C 482.175 57.615 482.273 57.87 482.273 58.125 C 482.273 59.29 482.059 60.161 481.633 60.752 C 471.853 74.375 462.852 89.591 457.08 105.399 L 454.625 114.061 C 454.066 115.244 453.722 116.608 453.598 118.159 C 452.161 124.408 451.496 130.687 451.611 136.999 C 451.225 137.519 451.037 138.295 451.044 139.323 C 451.053 143.325 451.34 147.102 451.906 150.655 C 451.775 151.793 451.759 152.582 451.841 153.02 C 452.613 157.115 453.417 161.319 454.263 165.633 L 456.127 175.175 L 459.601 188.699 C 459.699 191.283 460.241 193.604 461.243 195.663 L 464.027 215.14 C 465.094 221.185 465.711 227.503 465.858 234.097 L 466.671 249.353 L 466.449 250.47 L 465.562 266.343 L 464.815 273.479 L 462.721 286.142 L 460.693 295.297 L 457.786 305.077 L 455.339 311.63 L 447.505 330.139 L 443.539 339.237 C 441.896 341.488 440.378 344.197 438.99 347.384 C 438.768 347.892 438.711 348.344 438.809 348.739 C 438.538 348.771 438.333 348.878 438.193 349.075 C 436.321 351.67 434.72 354.421 433.381 357.344 L 427.765 365.523 L 424.956 369.94 L 419.306 377.47 C 419.282 377.651 418.986 378.029 418.428 378.62 C 416.293 380.131 414.56 382.192 413.214 384.787 L 405.388 392.867 L 393.835 403.657 L 385.311 410.382 L 378.076 415.983 C 377.6 416.024 376.812 416.385 375.711 417.075 L 357.539 428.234 C 357.407 428.308 357.317 428.415 357.251 428.546 C 357.104 428.826 357.022 428.867 357.013 428.653 L 346.962 433.794 L 328.199 441.415 L 316.564 445.117 L 312.531 446.349 L 295.825 449.732 L 290.332 450.529 L 277.144 451.769 L 249.79 451.884 C 249.527 451.884 249.29 451.967 249.093 452.13 C 248.781 452.377 248.477 452.524 248.173 452.582 L 248.116 452.056 C 248.091 451.761 247.91 451.605 247.622 451.588 C 242.884 451.318 239.189 450.398 233.598 450.34 C 231.873 449.708 229.976 449.396 227.874 449.404 L 208.938 444.838 L 196.777 441.291 L 179.549 433.736 L 168.472 428.071 L 153.378 418.38 L 148.189 414.792 L 139.583 408.165 L 131.199 401.547 L 116.804 387.645 L 112.313 382.981 C 110.818 380.164 109.085 378.07 107.13 376.706 L 100.619 367.51 L 98.755 364.545 L 91.439 351.62 C 91.323 351.391 91.159 351.193 90.954 351.03 L 90.576 350.734 L 87.53 344.46 C 86.831 342.071 85.715 339.771 84.138 337.563 L 80.493 328.382 C 78.447 322.806 76.6 317.182 74.9 311.507 C 74.818 311.219 74.679 311.088 74.448 311.112 L 72.19 303.714 L 69.71 294.197 L 67.74 285.353 C 67.312 281.551 66.352 277.856 64.858 274.267 L 62.673 266.286 C 62.804 265.752 62.772 265.112 62.541 264.372 C 61.08 259.363 59.249 254.641 57.081 250.224 C 53.46 241.618 48.533 233.99 42.3 227.322 C 39.648 224.481 37.332 222.403 35.336 221.069 C 29.843 217.39 23.331 212.449 15.801 206.248 C 12.131 203.209 7.212 198.685 6.498 193.733 C 6.087 190.908 5.274 187.073 7.056 184.61 C 9.355 181.435 11.605 178.065 13.798 174.502 C 14.134 173.97 14.611 173.703 15.235 173.697 C 23.849 173.648 30.886 176.67 40.042 180.915 C 48.163 184.682 56.071 188.543 63.798 192.501 C 65.925 193.596 68.725 194.552 72.19 195.367 C 72.486 195.433 72.658 195.323 72.74 195.039 L 74.457 188.396 L 78.949 175.75 L 80.386 171.463 L 90.855 149.037 L 93.269 145.071 C 95.388 140.708 97.786 136.775 100.446 133.271 C 100.792 132.812 101.021 132.144 101.12 131.268 C 103.296 129.898 104.839 128.046 105.735 125.706 L 111.54 118.299 C 111.598 118.217 111.638 118.126 111.638 118.019 C 111.647 117.954 111.647 117.872 111.647 117.789 C 112.369 117.314 113.002 116.714 113.536 115.991 C 117.214 111.007 121.904 106.794 126.486 102.656 C 127.315 101.892 128.128 100.948 128.883 99.831 L 136.602 92.999 L 142.03 88.466 L 156.047 78.062 L 171.369 68.635 C 179.803 64.496 188.967 60.58 198.895 56.876 C 199.831 56.531 200.39 55.907 200.586 54.987 C 200.62 55.185 200.669 55.341 200.742 55.464 C 200.882 55.727 201.104 55.809 201.383 55.727 L 212.502 52.581 L 228.457 48.96 L 232.111 48.427 L 246.498 46.637 C 246.637 46.62 246.752 46.546 246.826 46.406 C 246.859 46.325 246.884 46.242 246.884 46.143 C 247.426 46.283 247.778 46.456 248.329 46.431 C 258.019 45.938 267.7 45.93 277.398 46.423 C 277.808 46.448 278.343 46.152 278.983 45.528 Z M 174.466 87.752 C 171.608 88.803 169.153 90.002 167.092 91.348 C 157.361 97.737 147.868 105.349 138.614 114.185 C 136.101 116.599 133.86 119.005 131.872 121.419 C 130.23 123.423 128.07 125.919 125.41 128.903 C 120.959 133.885 117.14 139.247 113.93 144.989 C 103.551 160.47 96.152 177.201 91.726 195.178 C 91.635 195.537 91.907 195.887 92.284 195.893 L 96.045 195.909 C 112.32 196.703 128.193 199.599 143.672 204.597 C 159.315 210.466 174.047 218.062 187.867 227.387 C 192.687 230.639 197.023 233.973 200.858 237.397 C 217.043 251.833 230.231 267.953 239.288 287.619 C 239.551 288.178 239.805 289.064 240.068 290.28 C 240.109 290.445 240.216 290.543 240.388 290.559 C 240.569 290.576 240.709 290.485 240.807 290.296 C 240.832 290.231 240.856 290.157 240.856 290.082 C 240.807 283.546 242.86 276.033 244.166 270.013 C 245.603 263.412 247.869 256.489 251.014 249.263 C 252.968 244.731 254.972 240.049 257.025 235.222 L 259.488 230.54 L 267.93 215.74 L 269.852 213.071 C 274.475 205.938 279.016 199.626 283.45 194.135 C 288.353 188.075 294.24 181.46 301.129 174.288 C 314.091 161.741 327.575 150.981 341.567 142.008 C 349.812 136.72 362.639 128.922 380.055 118.611 C 382.543 117.141 385.204 115.146 387.208 113.717 C 387.446 113.553 387.453 113.372 387.241 113.174 L 381.328 107.804 C 372.115 99.921 362.63 93.171 352.875 87.563 C 345.862 83.54 338.037 79.655 329.398 75.91 C 329.242 75.845 328.864 75.763 328.265 75.656 C 327.747 75.426 327.254 75.229 326.795 75.065 C 318.887 72.363 312.736 70.425 308.347 69.259 C 287.687 63.782 266.025 61.721 244.905 64.053 C 224.745 66.287 205.694 71.632 187.711 80.09 C 183.351 82.152 178.933 84.705 174.466 87.752 Z M 257.329 320.622 C 258.175 329.827 259.611 338.918 261.64 347.901 C 263.537 356.539 266.156 364.94 269.548 373.118 C 271.264 377.29 272.98 380.624 274.704 383.12 C 277.226 386.791 279.09 389.526 280.304 391.332 C 280.469 391.561 280.814 391.537 280.937 391.282 C 280.946 391.282 280.946 391.282 280.946 391.282 C 281.971 389 283.352 386.734 282.325 384.147 C 279.328 376.518 277.045 368.676 275.493 360.628 C 272.438 344.895 271.034 329.227 271.272 313.625 C 271.387 306.662 271.682 301.949 272.192 299.477 C 272.799 296.537 273.284 293.745 273.654 291.101 C 273.694 290.822 273.572 290.633 273.317 290.534 L 271.699 289.96 C 274.146 282.619 276.322 274.3 278.704 267.846 C 281.659 259.848 284.681 252.851 287.769 246.873 C 287.999 246.43 288.146 246.142 288.229 246.019 C 288.607 245.33 288.665 245.362 288.393 246.11 C 287.818 247.629 287.252 249.526 286.71 251.809 C 285.306 257.672 284.074 263.732 283.014 269.989 C 280.962 281.978 280.371 294.509 281.241 307.566 C 281.454 310.932 281.964 314.151 282.76 317.214 C 282.604 320.565 282.842 323.857 283.508 327.076 C 283.655 327.84 284.501 331.009 286.02 336.594 C 288.229 344.69 290.972 352.467 294.281 359.906 C 294.445 360.292 294.626 360.292 294.807 359.914 C 298.379 352.155 301.261 345.856 303.453 341.019 C 306.261 334.82 315.808 315.547 332.083 283.201 C 332.896 281.576 333.011 280.697 332.362 279.063 C 331.336 276.484 330.621 273.692 330.211 270.703 C 329.652 258.337 331.976 246.34 337.199 234.696 L 342.758 223.652 C 343.136 222.888 343.415 222.928 343.595 223.766 C 343.604 223.815 343.571 224.062 343.506 224.505 C 341.723 235.262 341.371 246.471 342.454 258.124 L 343.243 265.505 C 343.3 266.031 343.448 266.055 343.678 265.58 C 347.735 257.261 351.225 251.234 355.486 242.513 C 359.123 235.082 365.594 224.094 368.83 218.17 C 374.381 208.004 379.998 197.877 385.68 187.788 L 403.951 156.814 C 409.502 147.726 415.003 139.068 420.448 130.84 C 421.285 129.565 421.417 129.634 420.834 131.045 L 397.53 186.942 C 394.023 196.101 390.385 205.205 386.617 214.254 C 381.443 226.673 374.759 239.336 369.906 250.454 C 368.756 253.081 367.228 255.956 365.324 259.076 C 364.56 260.324 364.798 260.554 366.038 259.773 C 370.94 256.67 374.291 254.568 376.097 253.476 C 382.56 249.542 388.25 245.387 393.169 241.002 L 406.693 229.604 L 413.345 224.8 C 413.78 224.481 414.043 224.588 414.141 225.121 C 414.19 225.433 414.034 225.925 413.657 226.583 C 412.556 229.17 411.144 231.6 409.428 233.883 C 403.828 241.273 397.809 248.303 391.371 254.97 C 387.947 258.509 383.406 262.639 380.055 265.284 C 377.452 267.329 372.779 270.72 366.046 275.466 C 362.45 276.928 359.067 278.71 355.896 280.812 C 353.852 282.167 353.039 283.513 351.963 285.624 C 349.163 291.125 346.38 296.767 343.604 302.564 L 339.416 310.546 L 331.812 327.15 C 330.088 330.87 328.404 334.713 326.779 338.671 C 326.696 338.86 326.704 339.016 326.819 339.147 C 326.918 339.262 327.074 339.311 327.222 339.262 C 343.308 333.793 358.138 325.91 371.704 315.629 C 375.95 312.411 379.48 309.133 382.289 305.817 C 392.955 297.186 402.457 287.209 410.791 275.893 C 412.614 273.413 415.25 269.505 418.698 264.176 C 418.74 264.11 418.789 264.093 418.855 264.143 C 418.921 264.183 418.945 264.241 418.921 264.306 C 417.238 268.027 414.725 273.405 411.391 280.435 C 407.284 289.073 401.381 297.941 393.686 307.048 C 380.203 322.987 364.346 335.534 346.133 344.69 C 342.142 346.685 335.376 349.88 325.834 354.265 C 323.929 355.135 322.32 355.973 321.022 356.77 C 317.672 358.814 315.668 360.128 314.42 363.832 L 311.706 370.031 C 311.567 370.343 311.821 370.687 312.17 370.655 C 318.748 369.883 324.775 368.832 330.26 367.518 C 336.132 366.106 343.653 364.389 350.124 362.337 C 382.412 352.072 407.112 332.061 424.233 302.294 C 427.789 296.102 430.515 290.551 432.404 285.632 C 435.951 276.411 439.367 265.637 441.165 255.184 C 441.872 251.595 442.315 248.426 442.504 245.667 C 443.539 230.787 443.26 214.91 440.575 199.834 L 436.674 175.511 C 434.834 163.498 433.521 151.476 433.816 139.323 C 434.219 122.306 439.318 106.359 447.358 91.488 C 449.024 88.746 450.502 86.717 451.792 85.419 C 453.91 83.284 453.705 83.03 451.184 84.672 C 441.905 90.724 434.128 96.448 423.979 104.347 C 411.859 113.782 399.369 122.684 386.501 131.045 C 376.114 137.788 361.957 145.893 353.014 151.821 C 346.117 156.392 339.416 161.119 332.912 166.002 C 315.093 179.381 299.618 195.443 286.48 214.188 C 280.453 222.797 274.804 232.947 269.523 244.657 C 258.568 268.914 254.504 294.229 257.329 320.622 Z M 46.57 195.983 L 24.383 186.285 C 24.341 186.267 24.292 186.29 24.259 186.335 L 24.243 186.384 C 23.989 186.868 28.644 189.389 34.614 192 L 35.435 192.354 C 41.389 194.956 46.389 196.658 46.595 196.155 L 46.628 196.106 C 46.644 196.058 46.628 196.002 46.57 195.983 Z M 46.973 210.172 C 50.569 214.295 53.961 218.263 57.179 222.083 C 69.883 237.176 79.827 253.919 87.012 272.313 C 91.118 282.791 95.076 293.327 98.919 303.911 C 99.888 306.572 102.515 312.205 106.827 320.819 C 112.632 332.619 120.672 344.485 130.287 353.583 C 143.106 365.687 158.716 375.541 175.122 381.281 C 184.763 384.648 195.791 387.291 208.207 389.23 C 213.504 390.059 220.45 390.108 226.043 390.765 C 226.28 390.79 226.453 390.544 226.355 390.33 C 224.433 386.175 222.117 382.907 219.374 380.517 C 218.915 380.115 218.373 379.811 217.807 379.622 L 201.047 374.121 C 190.224 369.218 182.119 365.129 176.715 361.844 C 162.009 352.886 148.378 341.742 137.004 328.529 C 134.336 325.434 132.488 322.642 130.165 319.776 C 128.423 317.625 126.756 315.415 125.188 313.157 C 120.064 305.783 115.4 298.114 111.179 290.157 L 104.823 274.842 C 104.774 274.711 104.839 274.572 104.971 274.538 L 105.234 274.465 C 105.275 274.448 105.291 274.465 105.307 274.497 C 107.804 278.817 110.637 282.906 113.848 286.757 C 116.204 289.582 118.537 292.448 120.877 295.339 C 121.657 296.553 122.528 297.728 123.471 298.878 C 132.743 310.062 143.097 320.096 154.504 328.997 C 156.039 330.681 157.221 331.83 158.092 332.438 C 162.616 335.616 169.604 340.839 175.402 344.164 C 182.99 348.516 190.888 352.442 199.1 355.939 C 206.211 358.97 210.137 360.645 210.859 360.957 C 212.987 361.877 213.364 361.409 211.984 359.561 C 211.344 358.707 210.605 356.942 209.783 354.265 C 209.677 353.895 209.989 353.542 210.367 353.624 C 210.4 353.632 210.44 353.641 210.474 353.657 C 212.502 354.577 214.505 355.948 216.501 357.779 C 217.864 359.044 219.202 359.972 220.524 360.572 C 224.557 365.169 228.359 369.784 231.882 374.424 C 239.912 384.96 246.498 396.382 251.613 408.691 C 251.194 409.348 250.538 408.831 249.659 407.131 C 249.166 406.179 248.502 405.694 247.68 405.661 C 239.805 405.399 231.742 404.971 223.481 404.396 C 198.641 402.656 175.353 396.103 153.633 384.755 C 150.332 383.014 147.302 381.223 144.543 379.376 C 137.604 374.711 135.001 373.217 130.575 369.415 C 130.065 368.971 130.016 369.013 130.426 369.555 C 138.77 380.296 148.55 389.476 159.759 397.112 C 164.111 400.775 168.447 404.437 173.087 407.451 C 191.382 419.325 211.294 426.97 232.825 430.369 C 235.035 430.723 237.539 431.445 239.699 431.724 C 242.696 432.102 248.116 432.653 255.965 433.375 C 256.426 433.416 256.992 433.4 257.665 433.317 C 257.797 433.515 257.994 433.613 258.256 433.622 C 260.696 433.696 264.925 433.703 270.927 433.654 L 282.456 433.367 C 282.735 433.359 282.883 433.219 282.908 432.948 C 283.992 418.988 287.383 406.277 294.667 394.46 C 294.766 394.28 294.733 394.148 294.528 394.074 L 294.183 393.943 C 294.002 393.869 293.846 393.91 293.731 394.066 C 291.538 396.85 288.738 398.549 285.306 399.173 C 282.834 399.617 281.627 400.093 280.428 402.13 C 276.215 409.29 273.399 416.829 271.978 424.745 C 271.822 425.665 271.502 425.714 271.058 424.893 L 270.501 423.858 C 269.877 421.181 269.006 418.545 267.93 415.967 C 262.198 402.467 254.216 390.478 243.96 380 C 241.603 377.586 238.13 374.44 233.515 370.548 C 233.721 370.17 233.999 369.9 234.385 369.735 C 234.928 369.497 235.24 369.308 235.338 369.177 C 235.543 368.889 235.749 368.487 235.946 367.97 C 236.849 365.588 237.465 363.478 237.826 361.639 C 241.702 346.587 240.437 331.461 235.675 317.001 C 231.84 303.377 226.667 291.257 220.155 280.631 C 195.454 240.247 150.134 215.19 103.477 210.994 C 94.649 210.195 88.761 209.811 85.821 209.844 C 83.022 209.871 74.448 209.778 60.087 209.565 C 54.831 209.489 49.707 208.93 44.738 207.89 C 44.025 207.742 43.958 207.887 44.533 208.325 L 46.973 210.172 Z M 345.353 390.059 C 341.674 390.675 339.367 391.102 338.414 391.349 C 329.266 393.664 320.103 395.881 310.909 398.008 C 309.382 398.353 308.315 398.845 307.716 399.478 C 306.918 400.316 306.393 401.432 306.114 402.836 C 303.544 406.827 301.466 411.581 299.865 417.1 C 299.052 420.22 298.617 424.219 298.543 429.105 C 298.519 429.696 299.068 430.14 299.66 430.017 C 307.576 428.194 315.315 425.936 322.895 423.225 C 328.084 421.37 335.08 418.397 343.875 414.308 C 346.281 413.191 348.917 411.458 351.454 410.169 C 357.03 407.353 361.497 403.879 367.426 400.06 C 370.595 398.016 374.84 394.246 380.146 388.753 C 382.272 387.275 384.711 385.272 387.462 382.726 C 396.708 374.145 404.649 365.12 411.284 355.661 C 421.269 341.405 429.628 325.089 436.362 306.711 C 436.394 306.629 436.378 306.572 436.321 306.539 L 436.313 306.539 C 436.255 306.506 436.206 306.539 436.157 306.646 C 429.127 321.558 419.471 335.148 407.17 347.416 C 389.392 365.153 368.264 380.41 345.353 390.059 Z M 344.023 374.81 C 332.23 377.758 320.48 380.492 308.766 383.005 C 304.562 383.9 301.417 386.043 299.348 389.443 C 298.912 390.166 299.068 390.346 299.848 389.985 C 307.805 386.257 321.925 382.759 333.594 378.636 C 338.135 377.027 341.616 375.763 344.039 374.859 C 344.056 374.851 344.063 374.827 344.047 374.81 C 344.039 374.802 344.031 374.802 344.023 374.81 Z" style=""/><path fill="#fcfdfc" d="M 328.265 75.656 C 329.767 81.223 329.291 86.52 326.844 91.538 C 324.996 95.306 321.507 101.038 317.877 102.516 C 314.494 103.895 311.337 99.995 309.784 97.392 C 305.753 90.626 303.101 85.575 298.608 81.856 C 294.191 78.21 288.665 75.475 282.555 75.09 C 282.53 75.09 280.148 74.867 275.419 74.424 C 275.272 74.408 275.14 74.441 275.033 74.515 L 274.631 74.769 C 274.557 74.818 274.557 74.934 274.631 74.967 C 274.648 74.974 274.672 74.974 274.68 74.974 C 275.575 75.032 276.371 75.279 277.086 75.705 C 283.047 79.293 288.993 86.199 289.74 93.483 C 289.855 94.575 289.42 94.854 288.467 94.321 C 285.643 92.769 281.988 89.501 278.572 88.211 C 271.157 85.419 261.591 88.885 254.784 92.186 C 249.577 94.715 243.476 98.188 236.513 102.607 C 235.33 103.354 234.624 104.093 234.41 104.824 C 234.106 105.85 234.468 106.531 235.47 106.868 C 242.827 109.34 249.89 112.025 252.788 119.465 C 253.371 120.943 253.913 120.935 254.43 119.424 C 256.861 112.329 259.143 105.013 261.278 97.474 C 261.484 96.752 261.845 96.136 262.387 95.618 C 262.584 95.429 262.815 95.322 263.085 95.29 C 266.755 94.945 270.262 95.741 273.579 97.664 C 282.194 102.656 289.1 106.836 294.305 110.202 C 297.976 112.567 300.982 114.727 302.493 118.406 C 302.739 119.021 303.839 121.797 305.793 126.732 C 305.893 126.992 305.802 127.135 305.523 127.161 C 304.094 127.282 302.813 127.028 301.663 126.395 C 301.401 124.334 300.85 122.38 300.021 120.541 C 299.249 118.857 297.976 117.905 296.449 117.141 C 291.686 114.76 288.097 112.879 285.683 111.491 C 279.368 107.862 273.522 105.464 267.519 101.597 C 266.961 101.243 266.214 101.481 265.984 102.097 L 256.614 126.601 C 256.426 127.088 255.916 127.379 255.408 127.301 C 252.911 126.931 250.759 123.563 249.371 121.698 C 248.74 120.869 247.122 119.612 244.527 117.921 C 237.999 113.684 232.004 112.822 231.692 103.715 C 231.487 97.285 231.207 93.147 230.855 91.299 C 230.083 87.128 229.056 83.005 227.775 78.925 C 227.57 78.301 226.955 77.922 226.314 78.021 C 213.085 80.124 202.902 87.965 194.453 97.942 C 186.217 107.665 178.794 117.962 172.2 128.853 C 168.102 135.603 164.045 143.486 162.304 151.361 C 159.988 160.837 159.447 170.083 163.963 178.114 C 165.548 180.922 167.092 183.753 168.611 186.605 L 169.202 189.003 C 170.221 194.63 171.238 200.048 172.273 205.254 C 172.807 207.898 172.766 210.675 172.158 213.589 L 167.42 203.135 C 165.696 198.723 164.169 194.229 162.863 189.652 C 160.974 183.09 157.419 177.663 156.162 171.594 C 153.829 160.155 155.891 148.865 161.187 138.608 C 167.379 126.683 174.868 115.211 183.654 104.191 C 186.734 100.349 190.175 96.727 193.992 93.327 C 194.206 93.131 194.173 93.031 193.878 93.024 C 193.64 93.015 193.352 93.081 193.049 93.221 C 183.548 97.573 174.892 103.173 167.092 110.005 C 163.741 112.945 161.031 115.507 158.97 117.691 C 150.702 126.428 146.448 130.925 146.194 131.194 C 141.923 135.972 139 140.547 134.91 145.679 C 131.273 150.25 128.177 155.409 125.606 161.158 C 125.59 161.222 125.508 161.231 125.459 161.175 C 125.459 161.175 125.459 161.174 125.459 161.174 L 125.238 160.837 C 125.163 160.723 125.147 160.585 125.188 160.46 C 131.051 142.378 139.386 125.607 151.769 111.113 C 157.426 104.487 163.758 98.025 170.77 91.726 C 171.32 91.242 172.552 89.92 174.466 87.752 C 178.933 84.705 183.351 82.152 187.711 80.09 C 205.694 71.632 224.745 66.287 244.905 64.053 C 266.025 61.721 287.687 63.782 308.347 69.259 C 312.736 70.425 318.887 72.363 326.795 75.065 C 327.254 75.229 327.747 75.426 328.265 75.656 Z" style=""/><path fill="#18d3e6" d="M 328.265 75.656 C 328.864 75.763 329.242 75.845 329.398 75.91 C 338.037 79.655 345.862 83.54 352.875 87.563 C 362.63 93.171 372.115 99.921 381.328 107.804 C 379.891 111.418 377.107 113.421 372.985 113.807 C 373.182 113.626 373.322 113.43 373.412 113.232 C 373.536 112.962 373.313 112.65 373.01 112.682 C 372.985 112.682 372.968 112.682 372.944 112.69 L 367.943 114.078 C 367.598 114.177 367.237 114.086 366.966 113.856 L 361.587 109.151 C 361.251 108.864 361.135 108.929 361.242 109.357 L 361.924 112.238 C 352.489 116.648 344.671 121.156 338.472 125.755 C 331.771 130.728 324.996 135.595 318.156 140.358 C 316.555 141.474 314.658 142.345 313.286 143.101 C 312.31 143.637 310.976 144.028 309.267 144.275 C 299.388 145.693 293.213 146.56 290.75 146.878 C 288.442 147.181 280.042 148.11 283.064 142.862 C 284.197 140.902 285.61 139.082 287.31 137.401 C 288.369 136.82 289.28 136.088 290.036 135.201 C 290.75 134.916 291.292 134.509 291.662 133.977 C 292.064 133.401 291.769 132.603 291.087 132.425 C 288.845 131.85 286.809 131.133 284.993 130.274 C 283.811 129.715 283.352 128.826 283.582 127.605 C 283.638 127.282 283.508 127.145 283.195 127.194 L 279.123 127.761 C 280.346 126.973 281.659 126.511 283.114 126.362 C 288.048 125.87 293.641 124.408 298.403 125.575 C 298.658 125.64 298.863 125.787 299.019 126.001 C 299.569 126.852 300.464 126.983 301.663 126.395 C 302.813 127.028 304.094 127.282 305.523 127.161 C 305.802 127.135 305.893 126.992 305.793 126.732 C 303.839 121.797 302.739 119.021 302.493 118.406 C 300.982 114.727 297.976 112.567 294.305 110.202 C 289.1 106.836 282.194 102.656 273.579 97.664 C 270.262 95.741 266.755 94.945 263.085 95.29 C 262.815 95.322 262.584 95.429 262.387 95.618 C 261.845 96.136 261.484 96.752 261.278 97.474 C 259.143 105.013 256.861 112.329 254.43 119.424 C 253.913 120.935 253.371 120.943 252.788 119.465 C 249.89 112.025 242.827 109.34 235.47 106.868 C 234.468 106.531 234.106 105.85 234.41 104.824 C 234.624 104.093 235.33 103.354 236.513 102.607 C 243.476 98.188 249.577 94.715 254.784 92.186 C 261.591 88.885 271.157 85.419 278.572 88.211 C 281.988 89.501 285.643 92.769 288.467 94.321 C 289.42 94.854 289.855 94.575 289.74 93.483 C 288.993 86.199 283.047 79.293 277.086 75.705 C 276.371 75.279 275.575 75.032 274.68 74.974 C 274.597 74.974 274.548 74.884 274.597 74.81 C 274.606 74.794 274.622 74.785 274.631 74.769 L 275.033 74.515 C 275.14 74.441 275.272 74.408 275.419 74.424 C 280.148 74.867 282.53 75.09 282.555 75.09 C 288.665 75.475 294.191 78.21 298.608 81.856 C 303.101 85.575 305.753 90.626 309.784 97.392 C 311.337 99.995 314.494 103.895 317.877 102.516 C 321.507 101.038 324.996 95.306 326.844 91.538 C 329.291 86.52 329.767 81.223 328.265 75.656 Z M 328.807 116.172 C 328.798 116.205 328.823 116.238 328.856 116.229 C 328.856 116.229 328.856 116.229 328.864 116.221 C 331.738 114.48 334.202 114.694 336.255 116.878 C 337.084 117.765 337.42 117.609 337.273 116.394 C 337.108 115.055 336.698 112.501 337.306 111.139 C 337.692 110.252 337.888 109.8 337.897 109.775 C 338.587 108.035 338.111 107.567 336.477 108.354 C 334.85 109.143 333.061 109.036 331.122 108.035 C 330.786 107.87 330.638 107.969 330.679 108.33 L 330.884 110.21 C 330.909 110.489 330.876 110.752 330.777 111.007 L 328.807 116.172 Z M 315.06 139.208 C 313.837 138.526 313.821 136.908 312.999 136.228 C 312.753 136.024 312.506 136.03 312.277 136.244 C 311.221 137.185 310.425 138.151 309.9 139.143 C 309.579 139.74 309.604 140.464 309.973 141.031 L 311.271 143.034 C 311.6 143.554 311.932 143.55 312.252 143.018 C 312.909 141.902 314.124 141.004 315.889 140.325 C 316.038 140.264 316.087 140.07 315.98 139.947 C 315.717 139.651 315.405 139.405 315.06 139.208 Z" style=""/><path fill="#c42c6f" d="M 393.26 77.733 L 393.76 77.963 C 393.596 78.259 393.374 78.464 393.111 78.596 C 393.046 78.284 393.095 77.996 393.26 77.733 Z" style=""/><path fill="#98e840" d="M 301.663 126.395 C 300.464 126.983 299.569 126.852 299.019 126.001 C 298.863 125.787 298.658 125.64 298.403 125.575 C 293.641 124.408 288.048 125.87 283.114 126.362 C 281.659 126.511 280.346 126.973 279.123 127.761 C 278.071 128.057 277.267 128.47 276.676 129.001 C 276.24 129.39 276.224 129.79 276.634 130.2 C 280.346 133.955 284.813 135.622 290.036 135.201 C 289.28 136.088 288.369 136.82 287.31 137.401 C 279.763 141.055 271.395 143.166 263.233 144.957 C 258.717 145.942 256.894 148.331 256.327 152.839 C 239.009 154.457 224.794 155.886 208.913 155.549 L 210.63 154.441 C 210.851 154.292 210.859 154.126 210.67 153.94 C 209.496 152.812 208.642 151.567 208.084 150.203 C 207.575 148.982 207.033 148.965 206.466 150.154 C 205.859 151.408 204.873 152.328 203.494 152.913 C 203.206 153.039 203.133 153.236 203.305 153.505 C 203.396 153.68 203.576 153.836 203.822 153.973 C 189.584 154.457 176.165 154.169 162.304 151.361 C 164.045 143.486 168.102 135.603 172.2 128.853 C 178.794 117.962 186.217 107.665 194.453 97.942 C 202.902 87.965 213.085 80.124 226.314 78.021 C 226.955 77.922 227.57 78.301 227.775 78.925 C 229.056 83.005 230.083 87.128 230.855 91.299 C 231.207 93.147 231.487 97.285 231.692 103.715 C 232.004 112.822 237.999 113.684 244.527 117.921 C 247.122 119.612 248.74 120.869 249.371 121.698 C 250.759 123.563 252.911 126.931 255.408 127.301 C 255.916 127.379 256.426 127.088 256.614 126.601 L 265.984 102.097 C 266.214 101.481 266.961 101.243 267.519 101.597 C 273.522 105.464 279.368 107.862 285.683 111.491 C 288.097 112.879 291.686 114.76 296.449 117.141 C 297.976 117.905 299.249 118.857 300.021 120.541 C 300.85 122.38 301.401 124.334 301.663 126.395 Z M 207.222 104.758 C 208.109 103.371 208.06 102.598 209.858 101.539 C 210.137 101.375 210.186 101.145 210.014 100.866 L 207.936 97.671 C 207.648 97.212 206.975 97.212 206.672 97.664 C 205.908 98.821 204.824 99.708 203.412 100.324 C 203.239 100.398 203.182 100.603 203.305 100.734 C 204.413 102.139 205.161 103.403 205.513 104.528 C 205.727 105.234 206.605 105.439 207.107 104.898 C 207.156 104.857 207.189 104.807 207.222 104.758 Z M 177.98 151.263 C 178.834 150.352 179.721 150.252 180.985 150.04 C 181.486 149.952 181.536 149.754 181.141 149.448 C 179.721 148.331 178.794 146.999 178.366 145.449 C 177.89 143.725 177.29 143.661 176.584 145.26 C 176.059 146.481 175.016 147.43 173.448 148.11 C 173.259 148.192 173.218 148.447 173.357 148.594 C 174.95 150.181 175.796 151.318 175.895 152.001 C 176.215 154.142 176.675 154.175 177.283 152.1 C 177.299 152.024 177.545 151.744 177.98 151.263 Z" style=""/><path fill="#fcfdfc" d="M 447.358 91.488 C 446.422 90.963 445.764 90.823 444.878 91.57 C 440.928 94.879 438.785 96.694 438.44 97.022 C 427.839 106.975 421.721 112.699 420.086 114.177 C 408.59 124.556 396.126 135.562 382.682 147.19 C 376.951 152.15 370.604 156.937 365.151 161.995 C 352.785 173.464 342.446 186.121 334.136 199.966 C 332.067 203.408 329.496 208.246 326.442 214.475 C 322.327 222.838 319.01 230.319 316.497 236.921 C 315.61 239.236 315.356 239.171 315.717 236.716 C 317.351 225.729 320.809 215.286 326.088 205.393 C 326.162 205.245 326.122 205.141 325.966 205.081 L 325.727 204.983 C 325.678 204.972 325.645 204.983 325.629 205.016 C 322.213 210.934 317.77 218.893 312.293 228.898 C 308.438 235.927 305.162 242.825 302.484 249.6 C 297.229 261.284 293.066 273.117 289.97 285.099 C 289.198 288.054 288.968 288.014 289.264 284.975 C 289.264 284.934 289.395 284.219 289.674 282.824 C 292.549 267.616 297.27 252.162 303.814 236.453 C 305.909 231.394 310.753 220.284 318.345 203.127 C 321.219 196.615 323.814 191.984 327.173 186.86 C 327.739 185.989 327.632 185.893 326.852 186.573 C 322.878 190.015 319.043 193.517 315.348 197.075 C 299.848 211.955 287.227 228.668 277.447 247.218 C 275.936 250.093 274.113 254.108 271.962 259.281 C 269.514 265.202 267.881 269.308 267.101 271.606 C 262.92 283.678 260.047 296.52 258.512 310.152 C 258.027 314.266 257.846 317.657 257.944 320.318 C 257.944 320.515 257.788 320.671 257.592 320.663 C 257.509 320.663 257.427 320.647 257.329 320.622 C 254.504 294.229 258.568 268.914 269.523 244.657 C 274.804 232.947 280.453 222.797 286.48 214.188 C 299.618 195.443 315.093 179.381 332.912 166.002 C 339.416 161.119 346.117 156.392 353.014 151.821 C 361.957 145.893 376.114 137.788 386.501 131.045 C 399.369 122.684 411.859 113.782 423.979 104.347 C 434.128 96.448 441.905 90.724 451.184 84.672 C 453.705 83.03 453.91 83.284 451.792 85.419 C 450.502 86.717 449.024 88.746 447.358 91.488 Z" style=""/><path fill="#13b4d5" d="M 174.466 87.752 C 172.552 89.92 171.32 91.242 170.77 91.726 C 163.758 98.025 157.426 104.487 151.769 111.113 C 139.386 125.607 131.051 142.378 125.188 160.46 C 125.147 160.585 125.163 160.723 125.238 160.837 L 125.459 161.174 C 125.5 161.231 125.59 161.222 125.606 161.159 C 125.606 161.159 125.606 161.158 125.606 161.158 C 128.177 155.409 131.273 150.25 134.91 145.679 C 139 140.547 141.923 135.972 146.194 131.194 C 146.448 130.925 150.702 126.428 158.97 117.691 C 161.031 115.507 163.741 112.945 167.092 110.005 C 174.892 103.173 183.548 97.573 193.049 93.221 C 193.352 93.081 193.64 93.015 193.878 93.024 C 194.173 93.031 194.206 93.131 193.992 93.327 C 190.175 96.727 186.734 100.349 183.654 104.191 C 174.868 115.211 167.379 126.683 161.187 138.608 C 155.891 148.865 153.829 160.155 156.162 171.594 C 157.419 177.663 160.974 183.09 162.863 189.652 C 164.169 194.229 165.696 198.723 167.42 203.135 L 143.672 204.597 C 128.193 199.599 112.32 196.703 96.045 195.909 C 95.938 190.654 98.328 185.078 101.087 176.932 C 102.927 171.488 105.176 166.7 107.09 161.593 C 107.591 160.279 108.691 157.931 110.415 154.548 C 112.001 151.449 113.174 148.263 113.93 144.989 C 117.14 139.247 120.959 133.885 125.41 128.903 C 128.07 125.919 130.23 123.423 131.872 121.419 C 133.86 119.005 136.101 116.599 138.614 114.185 C 147.868 105.349 157.361 97.737 167.092 91.348 C 169.153 90.002 171.608 88.803 174.466 87.752 Z M 143.574 147.009 L 145.167 141.819 C 145.577 140.495 145.167 140.169 143.943 140.842 C 142.876 141.434 141.619 141.937 140.182 142.353 C 139.763 142.476 139.55 142.952 139.739 143.346 C 140.478 144.776 141.57 146.056 143.015 147.19 C 143.212 147.342 143.508 147.248 143.574 147.009 Z M 116.525 173.114 C 115.466 176.94 111.433 175.544 108.691 175.068 C 108.56 175.047 108.436 175.189 108.502 175.324 C 108.51 175.36 108.527 175.391 108.567 175.413 C 108.962 175.659 110.194 176.239 112.246 177.154 C 115.005 178.386 114.316 181.26 114.644 183.748 C 114.686 184.005 114.726 184.152 114.776 184.191 C 115.121 184.481 115.433 184.44 115.696 184.068 C 116.558 182.902 117.247 182.013 117.757 181.399 C 118.972 179.946 119.604 179.847 121.525 180.118 C 123.816 180.436 125.771 181.01 127.413 181.842 C 127.578 181.919 127.767 181.794 127.75 181.617 C 127.75 181.602 127.75 181.586 127.734 181.572 L 127.66 181.276 C 127.643 181.199 127.594 181.15 127.511 181.129 C 124.736 180.11 122.552 178.487 120.992 176.258 C 120.327 175.306 120.253 174.074 120.737 172.563 C 120.942 171.95 120.721 171.693 120.048 171.792 L 117.518 172.161 C 117.026 172.237 116.689 172.556 116.525 173.114 Z" style=""/><path fill="#98e840" d="M 447.358 91.488 C 439.318 106.359 434.219 122.306 433.816 139.323 C 433.521 151.476 434.834 163.498 436.674 175.511 C 433.849 175.468 431.821 176.483 430.598 178.558 C 429.316 180.715 428.167 183.521 427.148 186.975 C 427.116 186.285 426.878 186.436 426.451 187.427 C 422.952 195.416 417.45 204.376 413.772 211.478 C 411.834 215.217 409.822 218.806 407.753 222.247 C 406.8 223.824 405.191 225.507 404.246 227.461 C 404.107 227.748 404.304 228.085 404.625 228.102 C 404.879 228.118 404.928 228.036 404.764 227.864 L 406.693 229.604 L 393.169 241.002 C 394.795 236.19 396.963 231.855 399.689 227.995 C 401.677 225.179 403.007 223.158 403.688 221.935 C 404.862 219.813 406.012 217.684 407.137 215.543 C 407.203 215.412 407.473 214.659 407.959 213.285 C 407.975 213.225 407.966 213.17 407.925 213.121 C 407.876 213.077 407.81 213.038 407.728 213.005 C 407.654 212.983 407.596 213.005 407.556 213.071 C 405.634 216.001 404.469 217.725 404.05 218.244 C 399.361 223.971 393.539 230.188 387.56 234.843 C 384.021 237.594 380.761 239.91 377.781 241.79 C 376.992 242.284 376.73 242.086 377.001 241.199 C 377.206 240.51 377.616 239.713 378.224 238.801 C 382.445 232.388 386.082 226.985 389.153 222.6 C 391.009 219.93 393.3 216.025 396.026 210.879 C 398.293 206.586 400.601 202.413 402.932 198.357 C 404.001 198.378 405.018 197.721 405.996 196.385 C 411.202 189.233 412.91 182.459 414.125 173.869 C 414.207 173.322 414.051 173.218 413.666 173.557 C 413.583 173.629 413.51 173.787 413.46 174.034 C 412.762 177.039 411.826 179.932 410.66 182.713 C 409.412 185.658 408.147 188.584 406.866 191.491 L 397.53 186.942 L 420.834 131.045 C 421.417 129.634 421.285 129.565 420.448 130.84 C 415.003 139.068 409.502 147.726 403.951 156.814 C 401.898 156.956 400.527 157.518 399.837 158.497 C 399.114 159.515 397.431 161.56 394.787 164.631 C 392.668 167.089 388.053 173.292 380.942 183.239 C 371.491 197.494 363.074 212.33 355.684 227.748 C 354.837 229.515 354.098 231.633 353.26 233.333 C 350.256 239.425 348.671 242.628 348.522 242.957 C 348.014 244 347.045 246.536 345.616 250.577 C 344.738 253.041 343.686 255.553 342.454 258.124 C 341.371 246.471 341.723 235.262 343.506 224.505 C 343.571 224.062 343.604 223.815 343.595 223.766 C 343.415 222.928 343.136 222.888 342.758 223.652 L 337.199 234.696 C 325.957 240.854 314.387 245.823 302.484 249.6 C 305.162 242.825 308.438 235.927 312.293 228.898 C 317.77 218.893 322.213 210.934 325.629 205.016 C 325.645 204.983 325.678 204.972 325.727 204.983 L 325.966 205.081 C 326.122 205.141 326.162 205.245 326.088 205.393 C 320.809 215.286 317.351 225.729 315.717 236.716 C 315.356 239.171 315.61 239.236 316.497 236.921 C 319.01 230.319 322.327 222.838 326.442 214.475 C 329.496 208.246 332.067 203.408 334.136 199.966 C 342.446 186.121 352.785 173.464 365.151 161.995 C 370.604 156.937 376.951 152.15 382.682 147.19 C 396.126 135.562 408.59 124.556 420.086 114.177 C 421.721 112.699 427.839 106.975 438.44 97.022 C 438.785 96.694 440.928 94.879 444.878 91.57 C 445.764 90.823 446.422 90.963 447.358 91.488 Z M 375.629 163.901 C 375.744 163.764 375.744 163.701 375.637 163.711 L 375.21 163.736 C 374.84 163.764 374.644 163.796 374.619 163.834 C 370.719 169.424 366.851 175.111 363.016 180.898 C 359.099 186.8 356.513 191.269 355.248 194.308 C 352.48 200.932 350.625 207.49 349.672 213.983 C 349.426 215.598 349.623 215.653 350.256 214.147 C 355.584 201.425 362.171 187.835 370.004 173.376 C 371.548 170.527 373.1 166.84 375.629 163.901 Z" style=""/><path fill="#fcfdfc" d="M 209.858 101.539 C 208.06 102.598 208.109 103.371 207.222 104.758 C 206.828 105.382 205.908 105.341 205.571 104.692 C 205.547 104.643 205.522 104.586 205.513 104.528 C 205.161 103.403 204.413 102.139 203.305 100.734 C 203.182 100.603 203.239 100.398 203.412 100.324 C 204.824 99.708 205.908 98.821 206.672 97.664 C 206.975 97.212 207.648 97.212 207.936 97.671 L 210.014 100.866 C 210.186 101.145 210.137 101.375 209.858 101.539 Z" style=""/><path fill="#14c2dc" d="M 301.129 174.288 C 298.493 174.395 295.759 175.076 293.385 175.224 C 288.484 175.536 282.423 175.908 275.214 176.341 C 269.565 176.686 264.251 176.803 259.275 176.694 C 251.071 176.514 245.75 176.355 243.296 176.218 C 242.449 176.168 241.596 175.643 240.758 174.641 C 241.71 172.621 243.09 171.067 244.912 169.976 C 245.529 169.605 246.786 169.016 248.707 168.211 C 250.949 167.259 252.632 165.581 253.732 163.177 C 254.71 161.042 255.564 157.596 256.327 152.839 C 256.894 148.331 258.717 145.942 263.233 144.957 C 271.395 143.166 279.763 141.055 287.31 137.401 C 285.61 139.082 284.197 140.902 283.064 142.862 C 280.042 148.11 288.442 147.181 290.75 146.878 C 293.213 146.56 299.388 145.693 309.267 144.275 C 310.976 144.028 312.31 143.637 313.286 143.101 C 314.658 142.345 316.555 141.474 318.156 140.358 C 324.996 135.595 331.771 130.728 338.472 125.755 C 344.671 121.156 352.489 116.648 361.924 112.238 C 362.835 115.54 362.31 118.373 360.348 120.729 C 360.192 120.918 360.282 121.189 360.511 121.255 C 362.22 121.747 363.32 121.189 363.805 119.588 C 363.911 119.227 364.338 119.055 364.674 119.244 L 369.701 122.15 C 370.308 122.511 371.08 122.068 371.08 121.362 C 371.08 121.272 371.063 121.189 371.047 121.107 L 370.169 117.945 C 370.086 117.683 370.103 117.42 370.218 117.158 C 370.768 115.819 371.687 114.702 372.985 113.807 C 377.107 113.421 379.891 111.418 381.328 107.804 L 387.241 113.174 C 387.453 113.372 387.446 113.553 387.208 113.717 C 385.204 115.146 382.543 117.141 380.055 118.611 C 362.639 128.922 349.812 136.72 341.567 142.008 C 327.575 150.981 314.091 161.741 301.129 174.288 Z M 281.43 151.944 C 281.191 152.312 281.142 152.771 281.266 153.323 C 281.315 153.56 281.274 154.005 281.118 154.662 C 279.804 160.69 275.033 161.018 269.884 161.371 C 269.802 161.377 269.753 161.418 269.728 161.494 L 269.67 161.699 C 269.597 161.984 269.704 162.14 270.008 162.167 C 274.753 162.553 279.475 162.39 281.044 168.022 C 281.578 169.983 281.939 171.744 282.144 173.311 C 282.144 173.398 282.194 173.453 282.276 173.475 C 282.358 173.508 282.448 173.514 282.506 173.492 C 282.678 173.448 282.76 173.343 282.768 173.18 C 283.146 168.088 284.681 163.219 290.627 162.497 C 291.382 162.409 292.639 162.272 294.388 162.085 C 294.601 162.063 294.667 161.948 294.601 161.741 L 294.503 161.478 C 294.461 161.396 294.396 161.354 294.305 161.354 C 292.088 161.371 290.216 161.127 288.648 160.623 C 284.206 159.17 283.664 156.354 282.071 152.429 C 281.832 151.821 281.61 151.659 281.43 151.944 Z" style=""/><path fill="#fcfdfc" d="M 328.807 116.172 L 330.777 111.007 C 330.876 110.752 330.909 110.489 330.884 110.21 L 330.679 108.33 C 330.638 107.969 330.786 107.87 331.122 108.035 C 333.061 109.036 334.85 109.143 336.477 108.354 C 338.111 107.567 338.587 108.035 337.897 109.775 C 337.888 109.8 337.692 110.252 337.306 111.139 C 336.698 112.501 337.108 115.055 337.273 116.394 C 337.42 117.609 337.084 117.765 336.255 116.878 C 334.202 114.694 331.738 114.48 328.864 116.221 C 328.831 116.238 328.798 116.213 328.798 116.189 C 328.798 116.18 328.807 116.18 328.807 116.172 Z" style=""/><path fill="#fcfdfc" d="M 372.985 113.807 C 371.687 114.702 370.768 115.819 370.218 117.158 C 370.103 117.42 370.086 117.683 370.169 117.945 L 371.047 121.107 C 371.236 121.789 370.612 122.421 369.93 122.248 C 369.848 122.224 369.766 122.191 369.701 122.15 L 364.674 119.244 C 364.338 119.055 363.911 119.227 363.805 119.588 C 363.32 121.189 362.22 121.747 360.511 121.255 C 360.282 121.189 360.192 120.918 360.348 120.729 C 362.31 118.373 362.835 115.54 361.924 112.238 L 361.242 109.357 C 361.135 108.929 361.251 108.864 361.587 109.151 L 366.966 113.856 C 367.237 114.086 367.598 114.177 367.943 114.078 L 372.944 112.69 C 373.231 112.608 373.503 112.871 373.429 113.167 C 373.429 113.191 373.42 113.216 373.412 113.232 C 373.322 113.43 373.182 113.626 372.985 113.807 Z" style=""/><path fill="#fcfdfc" d="M 290.036 135.201 C 284.813 135.622 280.346 133.955 276.634 130.2 C 276.224 129.79 276.24 129.39 276.676 129.001 C 277.267 128.47 278.071 128.057 279.123 127.761 L 283.195 127.194 C 283.508 127.145 283.638 127.282 283.582 127.605 C 283.352 128.826 283.811 129.715 284.993 130.274 C 286.809 131.133 288.845 131.85 291.087 132.425 C 291.769 132.603 292.064 133.401 291.662 133.977 C 291.292 134.509 290.75 134.916 290.036 135.201 Z" style=""/><path fill="#fcfdfc" d="M 315.06 139.208 C 315.405 139.405 315.717 139.651 315.98 139.947 C 316.087 140.07 316.038 140.264 315.889 140.325 C 314.124 141.004 312.909 141.902 312.252 143.018 C 311.932 143.55 311.6 143.554 311.271 143.034 L 309.973 141.031 C 309.604 140.464 309.579 139.74 309.9 139.143 C 310.425 138.151 311.221 137.185 312.277 136.244 C 312.506 136.03 312.753 136.024 312.999 136.228 C 313.821 136.908 313.837 138.526 315.06 139.208 Z" style=""/><path fill="#fcfdfc" d="M 145.167 141.819 L 143.574 147.009 C 143.508 147.248 143.212 147.342 143.015 147.19 C 141.57 146.056 140.478 144.776 139.739 143.346 C 139.55 142.952 139.763 142.476 140.182 142.353 C 141.619 141.937 142.876 141.434 143.943 140.842 C 145.167 140.169 145.577 140.495 145.167 141.819 Z" style=""/><path fill="#fcfdfc" d="M 177.98 151.263 C 177.545 151.744 177.299 152.024 177.283 152.1 C 176.675 154.175 176.215 154.142 175.895 152.001 C 175.796 151.318 174.95 150.181 173.357 148.594 C 173.218 148.447 173.259 148.192 173.448 148.11 C 175.016 147.43 176.059 146.481 176.584 145.26 C 177.29 143.661 177.89 143.725 178.366 145.449 C 178.794 146.999 179.721 148.331 181.141 149.448 C 181.536 149.754 181.486 149.952 180.985 150.04 C 179.721 150.252 178.834 150.352 177.98 151.263 Z" style=""/><path fill="#18d3e6" d="M 113.93 144.989 C 113.174 148.263 112.001 151.449 110.415 154.548 C 108.691 157.931 107.591 160.279 107.09 161.593 C 105.176 166.7 102.927 171.488 101.087 176.932 C 98.328 185.078 95.938 190.654 96.045 195.909 L 92.284 195.893 C 91.907 195.887 91.635 195.537 91.726 195.178 C 96.152 177.201 103.551 160.47 113.93 144.989 Z" style=""/><path fill="#fcfdfc" d="M 208.913 155.549 C 208.445 156.277 208.141 156.795 208.01 157.101 C 207.361 158.579 206.803 158.541 206.343 156.986 C 206.006 155.903 205.169 154.898 203.822 153.973 C 203.576 153.836 203.396 153.68 203.305 153.505 C 203.133 153.236 203.206 153.039 203.494 152.913 C 204.873 152.328 205.859 151.408 206.466 150.154 C 207.033 148.965 207.575 148.982 208.084 150.203 C 208.642 151.567 209.496 152.812 210.67 153.94 C 210.859 154.126 210.851 154.292 210.63 154.441 L 208.913 155.549 Z" style=""/><path fill="#81d836" d="M 203.822 153.973 C 205.169 154.898 206.006 155.903 206.343 156.986 C 206.803 158.541 207.361 158.579 208.01 157.101 C 208.141 156.795 208.445 156.277 208.913 155.549 C 224.794 155.886 239.009 154.457 256.327 152.839 C 255.564 157.596 254.71 161.042 253.732 163.177 C 252.632 165.581 250.949 167.259 248.707 168.211 C 246.786 169.016 245.529 169.605 244.912 169.976 C 243.09 171.067 241.71 172.621 240.758 174.641 C 239.568 178.621 239.419 182.247 240.314 185.521 C 241.078 188.303 241.908 191.179 242.802 194.152 C 243.164 195.334 242.244 197.831 240.602 197.494 C 238.837 197.126 237.794 196.671 237.44 196.122 C 234.829 191.951 232.85 187.227 231.512 181.949 C 230.871 179.469 229.796 177.762 227.053 178.369 C 219.942 179.93 213.019 180.662 206.286 180.57 C 203.345 180.531 199.544 181.188 194.872 182.54 C 193.763 182.861 192.482 183.058 191.989 184.166 C 191.685 184.807 191.127 186.433 190.306 189.044 L 188.129 195.654 L 187.276 197.633 L 185.707 196.566 C 186.168 196.522 186.348 196.243 186.266 195.728 C 186.224 195.409 186.019 195.134 185.716 194.99 C 180.904 192.696 176.338 190.276 172.011 187.73 C 171.28 187.298 170.138 186.924 168.611 186.605 C 167.092 183.753 165.548 180.922 163.963 178.114 C 159.447 170.083 159.988 160.837 162.304 151.361 C 176.165 154.169 189.584 154.457 203.822 153.973 Z" style=""/><path fill="#fcfdfc" d="M 282.071 152.429 C 283.664 156.354 284.206 159.17 288.648 160.623 C 290.216 161.127 292.088 161.371 294.305 161.354 C 294.396 161.354 294.461 161.396 294.503 161.478 L 294.601 161.741 C 294.667 161.948 294.601 162.063 294.388 162.085 C 292.639 162.272 291.382 162.409 290.627 162.497 C 284.681 163.219 283.146 168.088 282.768 173.18 C 282.76 173.343 282.678 173.448 282.506 173.492 C 282.448 173.514 282.358 173.508 282.276 173.475 C 282.194 173.453 282.144 173.398 282.144 173.311 C 281.939 171.744 281.578 169.983 281.044 168.022 C 279.475 162.39 274.753 162.553 270.008 162.167 C 269.704 162.14 269.597 161.984 269.67 161.699 L 269.728 161.494 C 269.753 161.418 269.802 161.377 269.884 161.371 C 275.033 161.018 279.804 160.69 281.118 154.662 C 281.274 154.005 281.315 153.56 281.266 153.323 C 281.142 152.771 281.191 152.312 281.43 151.944 C 281.61 151.659 281.832 151.821 282.071 152.429 Z" style=""/><path fill="#5dbf33" d="M 403.951 156.814 L 385.68 187.788 L 380.942 183.239 C 388.053 173.292 392.668 167.089 394.787 164.631 C 397.431 161.56 399.114 159.515 399.837 158.497 C 400.527 157.518 401.898 156.956 403.951 156.814 Z" style=""/><path fill="#fcfdfc" d="M 375.629 163.901 C 373.1 166.84 371.548 170.527 370.004 173.376 C 362.171 187.835 355.584 201.425 350.256 214.147 C 349.623 215.653 349.426 215.598 349.672 213.983 C 350.625 207.49 352.48 200.932 355.248 194.308 C 356.513 191.269 359.099 186.8 363.016 180.898 C 366.851 175.111 370.719 169.424 374.619 163.834 C 374.644 163.796 374.84 163.764 375.21 163.736 L 375.637 163.711 C 375.744 163.701 375.744 163.764 375.629 163.901 Z" style=""/><path fill="#fcfdfc" d="M 108.691 175.068 C 111.433 175.544 115.466 176.94 116.525 173.114 C 116.689 172.556 117.026 172.237 117.518 172.161 L 120.048 171.792 C 120.721 171.693 120.942 171.95 120.737 172.563 C 120.253 174.074 120.327 175.306 120.992 176.258 C 122.552 178.487 124.736 180.11 127.511 181.129 C 127.594 181.15 127.643 181.199 127.66 181.276 L 127.734 181.572 C 127.783 181.741 127.643 181.901 127.462 181.859 C 127.455 181.855 127.438 181.849 127.413 181.842 C 125.771 181.01 123.816 180.436 121.525 180.118 C 119.604 179.847 118.972 179.946 117.757 181.399 C 117.247 182.013 116.558 182.902 115.696 184.068 C 115.433 184.44 115.121 184.481 114.776 184.191 C 114.726 184.152 114.686 184.005 114.644 183.748 C 114.316 181.26 115.005 178.386 112.246 177.154 C 110.194 176.239 108.962 175.659 108.567 175.413 C 108.453 175.334 108.461 175.152 108.584 175.086 C 108.625 175.069 108.666 175.062 108.691 175.068 Z" style=""/><path fill="#81d836" d="M 436.674 175.511 L 440.575 199.834 C 439.589 202.144 438.99 204.367 438.776 206.502 C 438.366 210.532 438.005 213.471 437.676 215.322 C 435.508 227.634 432.503 239.746 428.652 251.661 C 424.874 262.402 421.934 271.59 416.712 283.472 C 408.952 301.095 397.677 315.81 382.889 327.609 C 377.534 331.88 373.617 334.746 371.138 336.208 C 361.012 342.169 352.612 346.685 345.936 349.757 C 336.928 353.904 327.903 358.025 318.871 362.123 C 317.507 362.739 316.177 363.625 314.897 364.775 C 314.625 365.013 314.469 364.701 314.42 363.832 C 315.668 360.128 317.672 358.814 321.022 356.77 C 322.32 355.973 323.929 355.135 325.834 354.265 C 335.376 349.88 342.142 346.685 346.133 344.69 C 364.346 335.534 380.203 322.987 393.686 307.048 C 401.381 297.941 407.284 289.073 411.391 280.435 C 414.725 273.405 417.238 268.027 418.921 264.306 C 418.945 264.241 418.921 264.183 418.855 264.143 C 418.789 264.093 418.74 264.11 418.698 264.176 C 415.25 269.505 412.614 273.413 410.791 275.893 C 402.457 287.209 392.955 297.186 382.289 305.817 C 366.383 315.506 349.558 322.617 331.812 327.15 L 339.416 310.546 C 343.974 307.722 348.243 305.053 352.217 302.523 C 366.842 293.228 380.614 282.84 393.523 271.361 C 397.973 267.403 403.368 261.211 409.715 252.778 C 412.877 248.582 415.299 243.178 418.165 238.161 C 418.642 237.307 418.542 237.233 417.869 237.931 C 416.022 239.828 414.7 242.251 412.746 244.163 C 410.06 246.808 406.292 250.52 401.43 255.307 C 400.609 256.112 400.518 256.045 401.159 255.093 C 403.277 251.949 405.634 248.203 408.237 243.851 C 410.463 240.123 412.327 235.205 414.33 231.263 C 414.446 231.017 414.511 230.763 414.519 230.5 C 414.535 229.145 414.741 227.978 415.152 227.001 C 415.554 226.024 415.291 225.736 414.355 226.148 C 414.24 226.197 414.01 226.336 413.657 226.583 C 414.034 225.925 414.19 225.433 414.141 225.121 C 414.043 224.588 413.78 224.481 413.345 224.8 L 406.693 229.604 L 404.764 227.864 C 405.33 227.059 406.636 225.794 408.672 224.086 C 415.283 218.526 419.89 211.243 422.493 202.232 C 423.971 197.119 425.523 192.033 427.148 186.975 C 428.167 183.521 429.316 180.715 430.598 178.558 C 431.821 176.483 433.849 175.468 436.674 175.511 Z" style=""/><path fill="#fcfdfc" d="M 402.932 198.357 C 404.788 196.495 406.102 194.207 406.866 191.491 C 408.147 188.584 409.412 185.658 410.66 182.713 C 411.826 179.932 412.762 177.039 413.46 174.034 C 413.51 173.787 413.583 173.629 413.666 173.557 C 414.051 173.218 414.207 173.322 414.125 173.869 C 412.91 182.459 411.202 189.233 405.996 196.385 C 405.018 197.721 404.001 198.378 402.932 198.357 Z" style=""/><path fill="#179fce" d="M 301.129 174.288 C 294.24 181.46 288.353 188.075 283.45 194.135 C 279.016 199.626 274.475 205.938 269.852 213.071 L 218.382 210.107 C 214.021 208.095 210.802 211.387 207.55 214.09 C 204.52 216.619 199.289 216.438 195.298 215.724 C 187.579 214.344 186.348 203.529 187.276 197.633 L 188.129 195.654 C 190.659 196.574 193.738 196.829 195.75 197.305 C 199.462 198.192 203.568 199.407 207.419 199.9 C 223.325 201.945 236.669 202.429 252.894 202.553 L 258.824 203.316 C 259.48 203.401 260.006 203.863 260.179 204.49 L 260.745 206.502 C 260.794 206.737 260.95 206.828 261.18 206.773 C 261.484 206.713 261.747 206.48 261.952 206.075 C 262.535 204.942 262.929 204.211 263.151 203.882 C 263.307 203.651 263.545 203.489 263.824 203.431 C 265.081 203.146 266.534 202.678 268.16 202.027 C 269.721 201.394 271.806 201.386 273.547 201.403 C 273.85 201.403 274.015 201.249 274.064 200.943 L 274.113 200.688 C 274.138 200.469 274.04 200.362 273.826 200.368 C 272.758 200.395 271.067 200.609 268.776 201.009 C 267.24 201.277 265.491 201.132 263.537 200.573 C 263.283 200.506 263.076 200.336 262.946 200.105 C 262.338 199.016 261.64 198.028 260.868 197.141 C 259.949 196.101 259.488 196.224 259.513 197.51 C 259.537 199.661 259.029 200.63 256.762 200.885 C 254.766 201.11 253.404 201.167 252.681 201.058 C 247.122 200.937 241.628 200.272 236.208 199.062 C 232.776 198.296 229.77 197.757 227.184 197.445 C 214.612 195.911 202.32 193.111 190.306 189.044 C 191.127 186.433 191.685 184.807 191.989 184.166 C 192.482 183.058 193.763 182.861 194.872 182.54 C 199.544 181.188 203.345 180.531 206.286 180.57 C 213.019 180.662 219.942 179.93 227.053 178.369 C 229.796 177.762 230.871 179.469 231.512 181.949 C 232.85 187.227 234.829 191.951 237.44 196.122 C 237.794 196.671 238.837 197.126 240.602 197.494 C 242.244 197.831 243.164 195.334 242.802 194.152 C 241.908 191.179 241.078 188.303 240.314 185.521 C 239.419 182.247 239.568 178.621 240.758 174.641 C 241.596 175.643 242.449 176.168 243.296 176.218 C 245.75 176.355 251.071 176.514 259.275 176.694 C 264.251 176.803 269.565 176.686 275.214 176.341 C 282.423 175.908 288.484 175.536 293.385 175.224 C 295.759 175.076 298.493 174.395 301.129 174.288 Z" style=""/><path fill="#34932b" d="M 380.942 183.239 L 385.68 187.788 C 379.998 197.877 374.381 208.004 368.83 218.17 C 365.594 224.094 359.123 235.082 355.486 242.513 C 351.225 251.234 347.735 257.261 343.678 265.58 C 343.448 266.055 343.3 266.031 343.243 265.505 L 342.454 258.124 C 343.686 255.553 344.738 253.041 345.616 250.577 C 347.045 246.536 348.014 244 348.522 242.957 C 348.671 242.628 350.256 239.425 353.26 233.333 C 354.098 231.633 354.837 229.515 355.684 227.748 C 363.074 212.33 371.491 197.494 380.942 183.239 Z" style=""/><path fill="#81d836" d="M 302.484 249.6 C 314.387 245.823 325.957 240.854 337.199 234.696 C 331.976 246.34 329.652 258.337 330.211 270.703 C 327.115 276.025 324.438 281.198 322.18 286.224 C 320.439 290.066 317.475 296.939 313.286 306.842 C 311.94 310.02 309.719 313.65 309.169 316.195 C 308.717 318.232 308.372 319.464 308.142 319.883 C 307.28 321.361 306.754 321.246 306.557 319.555 C 305.572 311.031 305.597 302.466 306.64 293.86 C 306.664 293.704 306.623 293.647 306.508 293.679 C 306.393 293.712 306.328 293.745 306.319 293.786 C 305.662 296.02 304.365 300.068 302.419 305.915 C 299.052 316.072 298.14 324.703 297.22 337.931 C 297.171 338.613 297.015 339.09 296.761 339.361 C 296.309 339.837 295.874 339.837 295.439 339.361 C 290.816 334.401 286.792 328.801 284.558 322.494 C 283.959 320.77 283.352 319.012 282.76 317.214 C 281.964 314.151 281.454 310.932 281.241 307.566 C 280.371 294.509 280.962 281.978 283.014 269.989 C 284.074 263.732 285.306 257.672 286.71 251.809 C 287.252 249.526 287.818 247.629 288.393 246.11 C 288.665 245.362 288.607 245.33 288.229 246.019 C 288.146 246.142 287.999 246.43 287.769 246.873 C 284.681 252.851 281.659 259.848 278.704 267.846 C 276.322 274.3 274.146 282.619 271.699 289.96 C 268.792 298.582 266.879 307.228 264.744 316.295 C 263.668 320.835 262.855 328.291 262.305 338.671 C 262.149 341.709 262.157 344.452 262.363 346.883 C 262.469 348.246 262.231 348.583 261.64 347.901 C 259.611 338.918 258.175 329.827 257.329 320.622 C 257.427 320.647 257.509 320.663 257.592 320.663 C 257.788 320.671 257.944 320.515 257.944 320.318 C 257.846 317.657 258.027 314.266 258.512 310.152 C 260.047 296.52 262.92 283.678 267.101 271.606 C 267.881 269.308 269.514 265.202 271.962 259.281 C 274.113 254.108 275.936 250.093 277.447 247.218 C 287.227 228.668 299.848 211.955 315.348 197.075 C 319.043 193.517 322.878 190.015 326.852 186.573 C 327.632 185.893 327.739 185.989 327.173 186.86 C 323.814 191.984 321.219 196.615 318.345 203.127 C 310.753 220.284 305.909 231.394 303.814 236.453 C 297.27 252.162 292.549 267.616 289.674 282.824 C 289.395 284.219 289.264 284.934 289.264 284.975 C 288.968 288.014 289.198 288.054 289.97 285.099 C 293.066 273.117 297.229 261.284 302.484 249.6 Z" style=""/><path fill="#98e840" d="M 185.707 196.566 L 169.202 189.003 L 168.611 186.605 C 170.138 186.924 171.28 187.298 172.011 187.73 C 176.338 190.276 180.904 192.696 185.716 194.99 C 186.019 195.134 186.224 195.409 186.266 195.728 C 186.348 196.243 186.168 196.522 185.707 196.566 Z" style=""/><path fill="#fcfdfc" d="M 427.148 186.975 C 425.523 192.033 423.971 197.119 422.493 202.232 C 419.89 211.243 415.283 218.526 408.672 224.086 C 406.636 225.794 405.33 227.059 404.764 227.864 C 404.928 228.036 404.879 228.118 404.625 228.102 C 404.304 228.085 404.107 227.748 404.246 227.461 C 405.191 225.507 406.8 223.824 407.753 222.247 C 409.822 218.806 411.834 215.217 413.772 211.478 C 417.45 204.376 422.952 195.416 426.451 187.427 C 426.878 186.436 427.116 186.285 427.148 186.975 Z" style=""/><path fill="#5dbf33" d="M 406.866 191.491 C 406.102 194.207 404.788 196.495 402.932 198.357 C 400.601 202.413 398.293 206.586 396.026 210.879 C 393.3 216.025 391.009 219.93 389.153 222.6 C 386.082 226.985 382.445 232.388 378.224 238.801 C 377.616 239.713 377.206 240.51 377.001 241.199 C 376.73 242.086 376.992 242.284 377.781 241.79 C 380.761 239.91 384.021 237.594 387.56 234.843 C 393.539 230.188 399.361 223.971 404.05 218.244 C 404.469 217.725 405.634 216.001 407.556 213.071 C 407.596 213.005 407.654 212.983 407.728 213.005 C 407.81 213.038 407.876 213.077 407.925 213.121 C 407.966 213.17 407.975 213.225 407.959 213.285 C 407.473 214.659 407.203 215.412 407.137 215.543 C 406.012 217.684 404.862 219.813 403.688 221.935 C 403.007 223.158 401.677 225.179 399.689 227.995 C 396.963 231.855 394.795 236.19 393.169 241.002 C 388.25 245.387 382.56 249.542 376.097 253.476 C 374.291 254.568 370.94 256.67 366.038 259.773 C 364.798 260.554 364.56 260.324 365.324 259.076 C 367.228 255.956 368.756 253.081 369.906 250.454 C 374.759 239.336 381.443 226.673 386.617 214.254 C 390.385 205.205 394.023 196.101 397.53 186.942 L 406.866 191.491 Z" style=""/><path fill="#5dbf33" d="M 185.707 196.566 L 187.276 197.633 C 186.348 203.529 187.579 214.344 195.298 215.724 C 199.289 216.438 204.52 216.619 207.55 214.09 C 210.802 211.387 214.021 208.095 218.382 210.107 C 218.431 210.359 218.431 210.567 218.398 210.731 L 218.126 211.026 C 217.987 211.177 217.888 211.334 217.839 211.478 L 215.318 220.372 C 214.834 222.091 215.45 223.044 217.199 223.24 C 219.769 223.52 225.049 223.652 227.069 226.115 C 227.98 227.248 228.818 228.701 229.541 230.491 L 230.543 233.916 C 231.487 237.134 232.234 239.253 232.801 240.288 C 234.057 242.636 235.109 244.829 235.954 246.882 C 236.11 247.292 235.806 247.752 235.363 247.752 C 232.111 247.711 227.767 247.891 225.968 245.165 C 223.875 241.996 221.46 239.425 218.734 237.471 C 215.909 235.451 211.804 234.54 208.651 232.586 C 206.63 231.338 205.062 229.186 203.592 227.855 C 201.334 225.811 199.355 225.219 196.078 224.571 C 190.536 223.47 184.837 220.552 180.329 218.819 C 177.036 217.549 174.31 215.806 172.158 213.589 C 172.766 210.675 172.807 207.898 172.273 205.254 C 171.238 200.048 170.221 194.63 169.202 189.003 L 185.707 196.566 Z" style=""/><path fill="#18d3e6" d="M 252.681 201.058 L 252.894 202.553 C 236.669 202.429 223.325 201.945 207.419 199.9 C 203.568 199.407 199.462 198.192 195.75 197.305 C 193.738 196.829 190.659 196.574 188.129 195.654 L 190.306 189.044 C 202.32 193.111 214.612 195.911 227.184 197.445 C 229.77 197.757 232.776 198.296 236.208 199.062 C 241.628 200.272 247.122 200.937 252.681 201.058 Z" style=""/><path fill="#fcfdfc" d="M 252.894 202.553 L 252.681 201.058 C 253.404 201.167 254.766 201.11 256.762 200.885 C 259.029 200.63 259.537 199.661 259.513 197.51 C 259.488 196.224 259.949 196.101 260.868 197.141 C 261.64 198.028 262.338 199.016 262.946 200.105 C 263.076 200.336 263.283 200.506 263.537 200.573 C 265.491 201.132 267.24 201.277 268.776 201.009 C 271.067 200.609 272.758 200.395 273.826 200.368 C 274.04 200.362 274.138 200.469 274.113 200.688 L 274.064 200.943 C 274.015 201.249 273.85 201.403 273.547 201.403 C 271.806 201.386 269.721 201.394 268.16 202.027 C 266.534 202.678 265.081 203.146 263.824 203.431 C 263.545 203.489 263.307 203.651 263.151 203.882 C 262.929 204.211 262.535 204.942 261.952 206.075 C 261.747 206.48 261.484 206.713 261.18 206.773 C 260.95 206.828 260.794 206.737 260.745 206.502 L 260.179 204.49 C 260.006 203.863 259.48 203.401 258.824 203.316 L 252.894 202.553 Z" style=""/><path fill="#5dbf33" d="M 441.165 255.184 C 437.142 253.344 432.971 252.17 428.652 251.661 C 432.503 239.746 435.508 227.634 437.676 215.322 C 438.005 213.471 438.366 210.532 438.776 206.502 C 438.99 204.367 439.589 202.144 440.575 199.834 C 443.26 214.91 443.539 230.787 442.504 245.667 C 442.315 248.426 441.872 251.595 441.165 255.184 Z" style=""/><path fill="#127eb5" d="M 167.42 203.135 L 172.158 213.589 C 174.31 215.806 177.036 217.549 180.329 218.819 C 184.837 220.552 190.536 223.47 196.078 224.571 C 199.355 225.219 201.334 225.811 203.592 227.855 C 205.062 229.186 206.63 231.338 208.651 232.586 C 211.804 234.54 215.909 235.451 218.734 237.471 C 221.46 239.425 223.875 241.996 225.968 245.165 C 227.767 247.891 232.111 247.711 235.363 247.752 C 235.806 247.752 236.11 247.292 235.954 246.882 C 235.109 244.829 234.057 242.636 232.801 240.288 C 232.234 239.253 231.487 237.134 230.543 233.916 C 239.699 234.704 246.186 235.09 249.988 235.073 C 253.297 235.057 255.653 235.106 257.025 235.222 C 254.972 240.049 252.968 244.731 251.014 249.263 C 247.869 256.489 245.603 263.412 244.166 270.013 C 242.86 276.033 240.807 283.546 240.856 290.082 C 240.856 290.157 240.832 290.231 240.807 290.296 C 240.709 290.485 240.569 290.576 240.388 290.559 C 240.216 290.543 240.109 290.445 240.068 290.28 C 239.805 289.064 239.551 288.178 239.288 287.619 C 230.231 267.953 217.043 251.833 200.858 237.397 C 197.023 233.973 192.687 230.639 187.867 227.387 C 174.047 218.062 159.315 210.466 143.672 204.597 L 167.42 203.135 Z" style=""/><path fill="#fcfdfc" d="M 235.675 317.001 C 235.314 317.058 235.059 316.919 234.919 316.59 C 231.363 308.091 227.299 300.175 222.717 292.834 C 220.861 289.574 218.784 286.461 216.452 283.497 C 211.443 277.125 206.237 271.155 200.874 265.587 C 197.433 262.032 192.022 257.606 184.607 252.301 C 183.884 251.784 183.293 251.793 182.751 251.332 C 180.994 249.838 179.097 248.491 177.085 247.292 C 174.4 245.691 172.142 244.057 169.974 242.596 C 169.941 242.563 169.892 242.554 169.834 242.571 L 169.522 242.661 C 169.391 242.694 169.334 242.858 169.44 242.957 C 169.44 242.964 169.448 242.973 169.448 242.981 C 176.149 248.179 181.856 253.344 186.578 258.469 C 195.594 268.257 203.412 279.35 207.205 292.349 C 207.542 293.499 208.207 294.681 208.782 295.814 C 208.856 295.946 208.807 296.036 208.675 296.077 L 208.396 296.159 C 208.339 296.168 208.314 296.152 208.289 296.11 C 205.415 289.714 201.934 283.793 197.869 278.356 C 192.227 270.851 185.305 263.223 177.767 256.842 C 167.28 247.949 156.129 240.312 144.313 233.932 C 134.13 228.422 123.332 224.456 111.918 222.041 C 103.279 220.204 96.103 219.047 90.387 218.565 C 81.206 217.793 73.57 216.904 67.493 215.896 C 60.48 214.724 55.964 213.685 53.961 212.775 C 51.842 211.801 49.502 210.934 46.973 210.172 L 44.533 208.325 C 43.958 207.887 44.025 207.742 44.738 207.89 C 49.707 208.93 54.831 209.489 60.087 209.565 C 74.448 209.778 83.022 209.871 85.821 209.844 C 88.761 209.811 94.649 210.195 103.477 210.994 C 150.134 215.19 195.454 240.247 220.155 280.631 C 226.667 291.257 231.84 303.377 235.675 317.001 Z" style=""/><path fill="#18d3e6" d="M 269.852 213.071 L 267.93 215.74 C 260.417 215.707 252.961 215.368 245.529 214.722 C 237.112 213.983 227.479 212.012 218.398 210.731 C 218.431 210.567 218.431 210.359 218.382 210.107 L 269.852 213.071 Z" style=""/><path fill="#81d836" d="M 222.717 292.834 L 218.759 297.407 L 214.398 288.547 C 214.349 288.457 214.267 288.424 214.169 288.457 C 214.062 288.49 214.021 288.564 214.062 288.678 C 217.938 300.355 217.223 310.842 214.941 322.889 C 214.366 323.25 213.865 323.176 213.446 322.65 C 212.805 321.846 212.223 321.008 211.722 320.121 C 205.424 309.306 198.082 298.516 189.69 287.742 C 184.607 281.247 180.764 276.246 176.626 271.114 C 175.911 270.219 175.139 270.17 174.203 270.712 C 168.348 260.275 160.342 251.866 150.176 245.486 C 147.335 243.695 145.323 242.423 144.14 241.651 C 142.506 240.584 142.375 240.756 143.721 242.16 C 148.599 247.227 152.853 252.942 156.458 259.305 C 159.019 263.789 160.711 267.082 161.541 269.201 C 161.434 269.694 161.327 269.883 161.237 269.767 C 160.662 268.963 159.463 267.329 158.083 266.663 C 156.425 265.875 154.856 264.931 153.378 263.748 C 151.112 261.917 147.966 259.429 143.935 256.292 C 142.506 255.167 138.606 252.827 132.233 249.271 C 130.041 248.04 127.848 246.997 125.623 246.126 C 123.718 245.379 121.525 244.451 119.038 243.351 C 116.796 242.357 114.472 241.93 112.057 242.07 C 111.688 241.832 111.146 241.56 110.439 241.248 C 102.45 237.669 94.961 234.63 87.956 232.134 C 87.127 231.838 87.012 232.109 87.62 232.947 C 87.842 233.259 88.417 233.776 89.36 234.507 C 103.509 245.461 114.932 253.878 123.62 259.766 C 127.545 262.418 130.402 265.128 134.492 267.666 C 134.763 267.838 135.066 268.174 135.411 268.667 C 135.6 268.914 135.534 268.979 135.255 268.856 C 130.789 266.811 128.423 265.743 128.177 265.645 C 124.975 264.397 120.745 262.623 115.498 260.308 C 112.781 259.109 110.366 257.696 108.28 256.071 C 105.488 253.886 103.14 252.038 101.243 250.527 C 101.235 250.511 101.218 250.511 101.202 250.536 L 101.111 250.79 C 101.079 250.889 101.087 250.963 101.169 251.029 C 104.676 253.985 107.804 257.327 111.401 260.168 C 116.977 264.544 122.724 268.716 128.67 272.691 C 127.939 272.584 127.413 272.584 127.093 272.698 C 126.387 272.929 126.206 273.832 126.748 274.316 C 126.748 274.316 126.748 274.316 126.748 274.325 C 128.013 275.441 129.663 276.205 130.64 276.879 C 140.133 283.448 150.776 290.608 162.567 298.343 C 164.119 299.354 165.713 300.553 167.355 301.932 C 168.668 303.033 170.228 304.273 172.027 305.668 C 172.249 305.824 172.363 305.578 172.396 304.93 C 179.458 311.778 186.068 319.275 192.227 327.421 C 190.897 327.462 189.304 326.936 187.456 325.844 C 184.599 324.144 182.406 322.256 180.855 320.179 C 180.592 319.809 180.255 319.546 179.828 319.39 L 179.507 319.267 C 179.204 319.152 178.899 319.415 178.966 319.727 C 178.974 319.784 178.99 319.842 179.023 319.891 C 180.813 322.51 182.611 324.547 184.418 326 C 187.761 328.677 190.609 331.092 192.967 333.26 C 192.999 333.292 193.04 333.341 193.049 333.391 C 193.073 333.472 193.049 333.555 192.974 333.621 C 192.851 333.719 192.737 333.728 192.613 333.662 C 184.862 329.532 176.091 326.526 167.847 321.467 C 166 320.326 164.16 319.292 162.353 318.356 C 160.605 317.452 158.724 316.483 156.721 315.457 C 156.351 314.915 155.135 314.036 153.074 312.812 C 143.065 306.876 132.906 301.168 123.094 294.911 C 122.528 294.541 121.78 294.681 120.877 295.339 C 118.537 292.448 116.204 289.582 113.848 286.757 C 110.637 282.906 107.804 278.817 105.307 274.497 C 105.291 274.465 105.275 274.448 105.234 274.465 L 104.971 274.538 C 104.839 274.572 104.774 274.711 104.823 274.842 L 111.179 290.157 C 111.22 293.754 112.106 297.687 113.84 301.957 C 115.49 306.013 117.173 310.053 118.889 314.085 C 120.318 317.419 121.977 320.679 123.883 323.857 C 125.722 326.92 127.627 330.057 129.581 333.26 C 123.455 327.782 118.118 322.297 113.568 316.795 C 112.115 315.03 110.407 312.739 108.42 309.913 C 108.264 309.684 108.157 309.708 108.124 309.988 L 106.827 320.819 C 102.515 312.205 99.888 306.572 98.919 303.911 C 95.076 293.327 91.118 282.791 87.012 272.313 C 79.827 253.919 69.883 237.176 57.179 222.083 C 53.961 218.263 50.569 214.295 46.973 210.172 C 49.502 210.934 51.842 211.801 53.961 212.775 C 55.964 213.685 60.48 214.724 67.493 215.896 C 73.57 216.904 81.206 217.793 90.387 218.565 C 96.103 219.047 103.279 220.204 111.918 222.041 C 123.332 224.456 134.13 228.422 144.313 233.932 C 156.129 240.312 167.28 247.949 177.767 256.842 C 185.305 263.223 192.227 270.851 197.869 278.356 C 201.934 283.793 205.415 289.714 208.289 296.11 C 208.314 296.152 208.339 296.168 208.396 296.159 L 208.675 296.077 C 208.807 296.036 208.856 295.946 208.782 295.814 C 208.207 294.681 207.542 293.499 207.205 292.349 C 203.412 279.35 195.594 268.257 186.578 258.469 C 181.856 253.344 176.149 248.179 169.448 242.981 C 169.341 242.899 169.358 242.719 169.49 242.669 C 169.497 242.661 169.506 242.661 169.522 242.661 L 169.834 242.571 C 169.892 242.554 169.941 242.563 169.974 242.596 C 172.142 244.057 174.4 245.691 177.085 247.292 C 179.097 248.491 180.994 249.838 182.751 251.332 C 183.293 251.793 183.884 251.784 184.607 252.301 C 192.022 257.606 197.433 262.032 200.874 265.587 C 206.237 271.155 211.443 277.125 216.452 283.497 C 218.784 286.461 220.861 289.574 222.717 292.834 Z" style=""/><path fill="#138ec4" d="M 218.398 210.731 C 227.479 212.012 237.112 213.983 245.529 214.722 C 252.961 215.368 260.417 215.707 267.93 215.74 L 259.488 230.54 C 250.965 230.968 243.008 230.803 235.617 230.048 C 233.261 229.802 231.232 229.95 229.541 230.491 C 228.818 228.701 227.98 227.248 227.069 226.115 C 225.049 223.652 219.769 223.52 217.199 223.24 C 215.45 223.044 214.834 222.091 215.318 220.372 L 217.839 211.478 C 217.888 211.334 217.987 211.177 218.126 211.026 L 218.398 210.731 Z" style=""/><path fill="#fcfdfc" d="M 339.416 310.546 L 343.604 302.564 C 345.008 301.587 346.166 300.479 347.078 299.23 C 352.357 291.988 358.015 285.057 364.043 278.431 C 364.379 278.053 365.044 277.059 366.046 275.466 C 372.779 270.72 377.452 267.329 380.055 265.284 C 383.406 262.639 387.947 258.509 391.371 254.97 C 397.809 248.303 403.828 241.273 409.428 233.883 C 411.144 231.6 412.556 229.17 413.657 226.583 C 414.01 226.336 414.24 226.197 414.355 226.148 C 415.291 225.736 415.554 226.024 415.152 227.001 C 414.741 227.978 414.535 229.145 414.519 230.5 C 414.511 230.763 414.446 231.017 414.33 231.263 C 412.327 235.205 410.463 240.123 408.237 243.851 C 405.634 248.203 403.277 251.949 401.159 255.093 C 400.518 256.045 400.609 256.112 401.43 255.307 C 406.292 250.52 410.06 246.808 412.746 244.163 C 414.7 242.251 416.022 239.828 417.869 237.931 C 418.542 237.233 418.642 237.307 418.165 238.161 C 415.299 243.178 412.877 248.582 409.715 252.778 C 403.368 261.211 397.973 267.403 393.523 271.361 C 380.614 282.84 366.842 293.228 352.217 302.523 C 348.243 305.053 343.974 307.722 339.416 310.546 Z" style=""/><path fill="#14c2dc" d="M 259.488 230.54 L 257.025 235.222 C 255.653 235.106 253.297 235.057 249.988 235.073 C 246.186 235.09 239.699 234.704 230.543 233.916 L 229.541 230.491 C 231.232 229.95 233.261 229.802 235.617 230.048 C 243.008 230.803 250.965 230.968 259.488 230.54 Z" style=""/><path fill="#1d2a3e" d="M 112.057 242.07 C 116.598 244.533 120.984 246.955 125.196 249.337 C 127.068 250.388 132.447 253.968 141.316 260.078 C 146.891 263.896 150.546 267.287 155.981 271.344 C 158.502 273.224 161.229 275.581 164.185 278.423 C 164.735 278.948 164.94 278.841 164.809 278.086 C 164.242 275.023 163.159 272.058 161.541 269.201 C 160.711 267.082 159.019 263.789 156.458 259.305 C 152.853 252.942 148.599 247.227 143.721 242.16 C 142.375 240.756 142.506 240.584 144.14 241.651 C 145.323 242.423 147.335 243.695 150.176 245.486 C 160.342 251.866 168.348 260.275 174.203 270.712 C 176.059 274.884 177.29 279.194 177.874 283.628 C 178.046 284.86 177.816 286.051 177.651 287.742 C 177.446 289.598 179.106 291.274 180.107 292.275 C 190.741 302.983 201.852 314.784 213.422 327.66 C 213.586 327.84 213.89 327.774 213.963 327.536 C 213.963 327.528 213.963 327.52 213.979 327.511 L 214.941 322.889 C 217.223 310.842 217.938 300.355 214.062 288.678 C 214.021 288.564 214.062 288.49 214.169 288.457 C 214.267 288.424 214.349 288.457 214.398 288.547 L 218.759 297.407 C 220.508 302.515 222.15 307.656 223.694 312.829 C 225.172 317.797 226.043 322.749 226.28 327.692 C 225.607 335.493 224.408 342.998 222.692 350.225 C 222.479 351.119 221.428 351.514 220.68 350.972 C 216.936 348.262 212.863 346.504 208.47 345.692 C 206.425 345.305 205.005 344.616 203.953 343.014 C 200.029 337.086 196.127 331.888 192.227 327.421 C 186.068 319.275 179.458 311.778 172.396 304.93 C 168.677 301.284 164.957 297.638 161.196 294.008 C 156.244 289.188 152.409 286.035 149.7 284.54 C 142.629 280.631 135.616 276.682 128.67 272.691 C 122.724 268.716 116.977 264.544 111.401 260.168 C 107.804 257.327 104.676 253.985 101.169 251.029 C 101.087 250.963 101.079 250.889 101.111 250.79 L 101.202 250.536 C 101.218 250.511 101.235 250.511 101.243 250.527 C 103.14 252.038 105.488 253.886 108.28 256.071 C 110.366 257.696 112.781 259.109 115.498 260.308 C 120.745 262.623 124.975 264.397 128.177 265.645 C 128.423 265.743 130.789 266.811 135.255 268.856 C 135.534 268.979 135.6 268.914 135.411 268.667 C 135.066 268.174 134.763 267.838 134.492 267.666 C 130.402 265.128 127.545 262.418 123.62 259.766 C 114.932 253.878 103.509 245.461 89.36 234.507 C 88.417 233.776 87.842 233.259 87.62 232.947 C 87.012 232.109 87.127 231.838 87.956 232.134 C 94.961 234.63 102.45 237.669 110.439 241.248 C 111.146 241.56 111.688 241.832 112.057 242.07 Z" style=""/><path fill="#34932b" d="M 161.541 269.201 C 163.159 272.058 164.242 275.023 164.809 278.086 C 164.94 278.841 164.735 278.948 164.185 278.423 C 161.229 275.581 158.502 273.224 155.981 271.344 C 150.546 267.287 146.891 263.896 141.316 260.078 C 132.447 253.968 127.068 250.388 125.196 249.337 C 120.984 246.955 116.598 244.533 112.057 242.07 C 114.472 241.93 116.796 242.357 119.038 243.351 C 121.525 244.451 123.718 245.379 125.623 246.126 C 127.848 246.997 130.041 248.04 132.233 249.271 C 138.606 252.827 142.506 255.167 143.935 256.292 C 147.966 259.429 151.112 261.917 153.378 263.748 C 154.856 264.931 156.425 265.875 158.083 266.663 C 159.463 267.329 160.662 268.963 161.237 269.767 C 161.327 269.883 161.434 269.694 161.541 269.201 Z" style=""/><path fill="#34932b" d="M 441.165 255.184 C 439.367 265.637 435.951 276.411 432.404 285.632 C 430.515 290.551 427.789 296.102 424.233 302.294 C 407.112 332.061 382.412 352.072 350.124 362.337 C 343.653 364.389 336.132 366.106 330.26 367.518 C 324.775 368.832 318.748 369.883 312.17 370.655 C 311.821 370.687 311.567 370.343 311.706 370.031 L 314.42 363.832 C 314.469 364.701 314.625 365.013 314.897 364.775 C 316.177 363.625 317.507 362.739 318.871 362.123 C 327.903 358.025 336.928 353.904 345.936 349.757 C 352.612 346.685 361.012 342.169 371.138 336.208 C 373.617 334.746 377.534 331.88 382.889 327.609 C 397.677 315.81 408.952 301.095 416.712 283.472 C 421.934 271.59 424.874 262.402 428.652 251.661 C 432.971 252.17 437.142 253.344 441.165 255.184 Z" style=""/><path fill="#34932b" d="M 214.941 322.889 L 213.979 327.511 C 213.914 327.749 213.627 327.848 213.446 327.676 C 213.43 327.676 213.43 327.667 213.422 327.66 C 201.852 314.784 190.741 302.983 180.107 292.275 C 179.106 291.274 177.446 289.598 177.651 287.742 C 177.816 286.051 178.046 284.86 177.874 283.628 C 177.29 279.194 176.059 274.884 174.203 270.712 C 175.139 270.17 175.911 270.219 176.626 271.114 C 180.764 276.246 184.607 281.247 189.69 287.742 C 198.082 298.516 205.424 309.306 211.722 320.121 C 212.223 321.008 212.805 321.846 213.446 322.65 C 213.865 323.176 214.366 323.25 214.941 322.889 Z" style=""/><path fill="#34932b" d="M 330.211 270.703 C 330.621 273.692 331.336 276.484 332.362 279.063 C 333.011 280.697 332.896 281.576 332.083 283.201 C 315.808 315.547 306.261 334.82 303.453 341.019 C 301.261 345.856 298.379 352.155 294.807 359.914 C 294.626 360.292 294.445 360.292 294.281 359.906 C 290.972 352.467 288.229 344.69 286.02 336.594 C 284.501 331.009 283.655 327.84 283.508 327.076 C 282.842 323.857 282.604 320.565 282.76 317.214 C 283.352 319.012 283.959 320.77 284.558 322.494 C 286.792 328.801 290.816 334.401 295.439 339.361 C 295.874 339.837 296.309 339.837 296.761 339.361 C 297.015 339.09 297.171 338.613 297.22 337.931 C 298.14 324.703 299.052 316.072 302.419 305.915 C 304.365 300.068 305.662 296.02 306.319 293.786 C 306.328 293.745 306.393 293.712 306.508 293.679 C 306.623 293.647 306.664 293.704 306.64 293.86 C 305.597 302.466 305.572 311.031 306.557 319.555 C 306.754 321.246 307.28 321.361 308.142 319.883 C 308.372 319.464 308.717 318.232 309.169 316.195 C 309.719 313.65 311.94 310.02 313.286 306.842 C 317.475 296.939 320.439 290.066 322.18 286.224 C 324.438 281.198 327.115 276.025 330.211 270.703 Z" style=""/><path fill="#fcfdfc" d="M 128.67 272.691 C 135.616 276.682 142.629 280.631 149.7 284.54 C 152.409 286.035 156.244 289.188 161.196 294.008 C 164.957 297.638 168.677 301.284 172.396 304.93 C 172.363 305.578 172.249 305.824 172.027 305.668 C 170.228 304.273 168.668 303.033 167.355 301.932 C 165.713 300.553 164.119 299.354 162.567 298.343 C 150.776 290.608 140.133 283.448 130.64 276.879 C 129.663 276.205 128.013 275.441 126.748 274.325 C 126.206 273.841 126.387 272.937 127.093 272.698 C 127.093 272.698 127.093 272.698 127.093 272.698 C 127.413 272.584 127.939 272.584 128.67 272.691 Z" style=""/><path fill="#5dbf33" d="M 366.046 275.466 C 365.044 277.059 364.379 278.053 364.043 278.431 C 358.015 285.057 352.357 291.988 347.078 299.23 C 346.166 300.479 345.008 301.587 343.604 302.564 C 346.38 296.767 349.163 291.125 351.963 285.624 C 353.039 283.513 353.852 282.167 355.896 280.812 C 359.067 278.71 362.45 276.928 366.046 275.466 Z" style=""/><path fill="#34932b" d="M 271.699 289.96 L 273.317 290.534 C 273.572 290.633 273.694 290.822 273.654 291.101 C 273.284 293.745 272.799 296.537 272.192 299.477 C 271.682 301.949 271.387 306.662 271.272 313.625 C 271.034 329.227 272.438 344.895 275.493 360.628 C 277.045 368.676 279.328 376.518 282.325 384.147 C 283.352 386.734 281.971 389 280.946 391.282 C 280.83 391.537 280.478 391.561 280.304 391.332 C 280.304 391.332 280.304 391.332 280.304 391.332 C 279.09 389.526 277.226 386.791 274.704 383.12 C 272.98 380.624 271.264 377.29 269.548 373.118 C 266.156 364.94 263.537 356.539 261.64 347.901 C 262.231 348.583 262.469 348.246 262.363 346.883 C 262.157 344.452 262.149 341.709 262.305 338.671 C 262.855 328.291 263.668 320.835 264.744 316.295 C 266.879 307.228 268.792 298.582 271.699 289.96 Z" style=""/><path fill="#5dbf33" d="M 201.047 374.121 C 195.931 373.061 189.46 371.025 181.635 368.002 C 170.885 363.856 161.738 359.2 154.142 354.027 C 147.729 349.642 142.867 346.078 139.583 343.344 C 136.34 340.634 132.997 337.267 129.581 333.26 C 127.627 330.057 125.722 326.92 123.883 323.857 C 121.977 320.679 120.318 317.419 118.889 314.085 C 117.173 310.053 115.49 306.013 113.84 301.957 C 112.106 297.687 111.22 293.754 111.179 290.157 C 115.4 298.114 120.064 305.783 125.188 313.157 C 126.756 315.415 128.423 317.625 130.165 319.776 C 132.488 322.642 134.336 325.434 137.004 328.529 C 148.378 341.742 162.009 352.886 176.715 361.844 C 182.119 365.129 190.224 369.218 201.047 374.121 Z" style=""/><path fill="#5dbf33" d="M 222.717 292.834 C 227.299 300.175 231.363 308.091 234.919 316.59 C 235.059 316.919 235.314 317.058 235.675 317.001 C 240.437 331.461 241.702 346.587 237.826 361.639 C 237.317 360.612 237.038 359.487 237.014 358.264 C 236.972 356.646 236.874 355.521 236.726 354.897 C 235.773 350.775 235.059 348.057 234.591 346.727 C 232.974 342.194 230.206 335.846 226.28 327.692 C 226.043 322.749 225.172 317.797 223.694 312.829 C 222.15 307.656 220.508 302.515 218.759 297.407 L 222.717 292.834 Z" style=""/><path fill="#5dbf33" d="M 156.721 315.457 C 159.792 319.767 162.92 323.841 166.123 327.676 C 167.453 329.269 170.417 331.756 171.707 334.499 C 172.191 335.493 171.92 335.756 170.926 335.288 C 168.57 334.187 166.221 332.373 163.52 331.174 C 160.925 330.032 158.346 328.899 155.743 327.774 C 155.587 327.7 155.447 327.684 155.324 327.716 C 155.193 327.749 155.07 327.84 154.93 327.988 C 154.816 328.135 154.816 328.275 154.947 328.423 C 154.988 328.472 155.028 328.563 155.061 328.702 C 155.086 328.833 155.037 328.908 154.898 328.908 C 154.758 328.908 154.618 328.932 154.504 328.997 C 143.097 320.096 132.743 310.062 123.471 298.878 C 122.528 297.728 121.657 296.553 120.877 295.339 C 121.78 294.681 122.528 294.541 123.094 294.911 C 132.906 301.168 143.065 306.876 153.074 312.812 C 155.135 314.036 156.351 314.915 156.721 315.457 Z" style=""/><path fill="#34932b" d="M 382.289 305.817 C 379.48 309.133 375.95 312.411 371.704 315.629 C 358.138 325.91 343.308 333.793 327.222 339.262 C 327.074 339.311 326.918 339.262 326.819 339.147 C 326.704 339.016 326.696 338.86 326.779 338.671 C 328.404 334.713 330.088 330.87 331.812 327.15 C 349.558 322.617 366.383 315.506 382.289 305.817 Z" style=""/><path fill="#1772b5" d="M 380.146 388.753 C 377.107 390.379 373.921 391.743 370.932 393.286 C 358.795 399.576 345.936 404.905 332.354 409.274 C 323.88 412 315.528 414.086 307.321 415.548 C 306.573 415.679 305.342 415.967 303.626 416.426 C 302.394 416.747 301.129 416.969 299.865 417.1 C 301.466 411.581 303.544 406.827 306.114 402.836 C 311.041 402.114 315.044 401.308 318.131 400.422 C 326.877 397.909 335.951 394.453 345.353 390.059 C 368.264 380.41 389.392 365.153 407.17 347.416 C 419.471 335.148 429.127 321.558 436.157 306.646 C 436.206 306.539 436.255 306.506 436.313 306.539 L 436.321 306.539 C 436.378 306.572 436.394 306.629 436.362 306.711 C 429.628 325.089 421.269 341.405 411.284 355.661 C 404.649 365.12 396.708 374.145 387.462 382.726 C 384.711 385.272 382.272 387.275 380.146 388.753 Z" style=""/><path fill="#34932b" d="M 129.581 333.26 C 132.997 337.267 136.34 340.634 139.583 343.344 C 142.867 346.078 147.729 349.642 154.142 354.027 C 161.738 359.2 170.885 363.856 181.635 368.002 C 189.46 371.025 195.931 373.061 201.047 374.121 L 217.807 379.622 C 218.373 379.811 218.915 380.115 219.374 380.517 C 222.117 382.907 224.433 386.175 226.355 390.33 C 226.453 390.544 226.28 390.79 226.043 390.765 C 220.45 390.108 213.504 390.059 208.207 389.23 C 195.791 387.291 184.763 384.648 175.122 381.281 C 158.716 375.541 143.106 365.687 130.287 353.583 C 120.672 344.485 112.632 332.619 106.827 320.819 L 108.124 309.988 C 108.157 309.708 108.264 309.684 108.42 309.913 C 110.407 312.739 112.115 315.03 113.568 316.795 C 118.118 322.297 123.455 327.782 129.581 333.26 Z" style=""/><path fill="#2e842a" d="M 156.721 315.457 C 158.724 316.483 160.605 317.452 162.353 318.356 C 164.16 319.292 166 320.326 167.847 321.467 C 176.091 326.526 184.862 329.532 192.613 333.662 C 192.737 333.728 192.851 333.719 192.974 333.621 C 193.049 333.555 193.073 333.472 193.049 333.391 C 193.04 333.341 192.999 333.292 192.967 333.26 C 190.609 331.092 187.761 328.677 184.418 326 C 182.611 324.547 180.813 322.51 179.023 319.891 C 178.843 319.62 179.031 319.259 179.343 319.243 C 179.401 319.234 179.458 319.243 179.507 319.267 L 179.828 319.39 C 180.255 319.546 180.592 319.809 180.855 320.179 C 182.406 322.256 184.599 324.144 187.456 325.844 C 189.304 326.936 190.897 327.462 192.227 327.421 C 196.127 331.888 200.029 337.086 203.953 343.014 C 205.005 344.616 206.425 345.305 208.47 345.692 C 212.863 346.504 216.936 348.262 220.68 350.972 C 221.428 351.514 222.479 351.119 222.692 350.225 C 224.408 342.998 225.607 335.493 226.28 327.692 C 230.206 335.846 232.974 342.194 234.591 346.727 C 235.059 348.057 235.773 350.775 236.726 354.897 C 236.874 355.521 236.972 356.646 237.014 358.264 C 237.038 359.487 237.317 360.612 237.826 361.639 C 237.465 363.478 236.849 365.588 235.946 367.97 C 235.749 368.487 235.543 368.889 235.338 369.177 C 235.24 369.308 234.928 369.497 234.385 369.735 C 233.999 369.9 233.721 370.17 233.515 370.548 L 220.524 360.572 C 219.202 359.972 217.864 359.044 216.501 357.779 C 214.505 355.948 212.502 354.577 210.474 353.657 C 210.112 353.501 209.727 353.78 209.759 354.166 C 209.776 354.199 209.776 354.232 209.783 354.265 C 210.605 356.942 211.344 358.707 211.984 359.561 C 213.364 361.409 212.987 361.877 210.859 360.957 C 210.137 360.645 206.211 358.97 199.1 355.939 C 190.888 352.442 182.99 348.516 175.402 344.164 C 169.604 340.839 162.616 335.616 158.092 332.438 C 157.221 331.83 156.039 330.681 154.504 328.997 C 154.618 328.932 154.758 328.908 154.898 328.908 C 155.037 328.908 155.086 328.833 155.061 328.702 C 155.028 328.563 154.988 328.472 154.947 328.423 C 154.816 328.275 154.816 328.135 154.93 327.988 C 155.07 327.84 155.193 327.749 155.324 327.716 C 155.447 327.684 155.587 327.7 155.743 327.774 C 158.346 328.899 160.925 330.032 163.52 331.174 C 166.221 332.373 168.57 334.187 170.926 335.288 C 171.92 335.756 172.191 335.493 171.707 334.499 C 170.417 331.756 167.453 329.269 166.123 327.676 C 162.92 323.841 159.792 319.767 156.721 315.457 Z" style=""/><path fill="#5dbf33" d="M 233.515 370.548 C 238.13 374.44 241.603 377.586 243.96 380 C 254.216 390.478 262.198 402.467 267.93 415.967 C 269.006 418.545 269.877 421.181 270.501 423.858 L 270.927 433.654 C 264.925 433.703 260.696 433.696 258.256 433.622 C 257.994 433.613 257.797 433.515 257.665 433.317 C 257.066 427.972 256.13 423.045 254.866 418.529 L 251.613 408.691 C 246.498 396.382 239.912 384.96 231.882 374.424 C 228.359 369.784 224.557 365.169 220.524 360.572 L 233.515 370.548 Z" style=""/><path fill="#1772b5" d="M 251.613 408.691 L 254.866 418.529 C 238.861 418.496 223.169 416.804 207.78 413.437 C 205.752 412.994 203.518 412.411 201.054 411.688 C 195.028 409.914 189.871 408.708 184.508 406.589 C 183.252 406.088 180.715 405.185 176.871 403.888 C 174.942 403.231 172.437 402.195 169.341 400.784 C 166.254 399.371 163.068 398.148 159.759 397.112 C 148.55 389.476 138.77 380.296 130.426 369.555 C 130.016 369.013 130.065 368.971 130.575 369.415 C 135.001 373.217 137.604 374.711 144.543 379.376 C 147.302 381.223 150.332 383.014 153.633 384.755 C 175.353 396.103 198.641 402.656 223.481 404.396 C 231.742 404.971 239.805 405.399 247.68 405.661 C 248.502 405.694 249.166 406.179 249.659 407.131 C 250.538 408.831 251.194 409.348 251.613 408.691 Z" style=""/><path fill="#34932b" d="M 344.039 374.859 C 341.616 375.763 338.135 377.027 333.594 378.636 C 321.925 382.759 307.805 386.257 299.848 389.985 C 299.068 390.346 298.912 390.166 299.348 389.443 C 301.417 386.043 304.562 383.9 308.766 383.005 C 320.48 380.492 332.23 377.758 344.023 374.81 C 344.039 374.802 344.056 374.818 344.056 374.834 C 344.056 374.843 344.047 374.851 344.039 374.859 Z" style=""/><path fill="#203a7e" d="M 380.146 388.753 C 374.84 394.246 370.595 398.016 367.426 400.06 C 361.497 403.879 357.03 407.353 351.454 410.169 C 348.917 411.458 346.281 413.191 343.875 414.308 C 335.08 418.397 328.084 421.37 322.895 423.225 C 315.315 425.936 307.576 428.194 299.66 430.017 C 299.068 430.14 298.519 429.696 298.543 429.105 C 298.617 424.219 299.052 420.22 299.865 417.1 C 301.129 416.969 302.394 416.747 303.626 416.426 C 305.342 415.967 306.573 415.679 307.321 415.548 C 315.528 414.086 323.88 412 332.354 409.274 C 345.936 404.905 358.795 399.576 370.932 393.286 C 373.921 391.743 377.107 390.379 380.146 388.753 Z" style=""/><path fill="#203a7e" d="M 345.353 390.059 C 335.951 394.453 326.877 397.909 318.131 400.422 C 315.044 401.308 311.041 402.114 306.114 402.836 C 306.393 401.432 306.918 400.316 307.716 399.478 C 308.315 398.845 309.382 398.353 310.909 398.008 C 320.103 395.881 329.266 393.664 338.414 391.349 C 339.367 391.102 341.674 390.675 345.353 390.059 Z" style=""/><path fill="#2e842a" d="M 270.927 433.654 L 270.501 423.858 L 271.058 424.893 C 271.502 425.714 271.822 425.665 271.978 424.745 C 273.399 416.829 276.215 409.29 280.428 402.13 C 281.627 400.093 282.834 399.617 285.306 399.173 C 288.738 398.549 291.538 396.85 293.731 394.066 C 293.846 393.91 294.002 393.869 294.183 393.943 L 294.528 394.074 C 294.733 394.148 294.766 394.28 294.667 394.46 C 287.383 406.277 283.992 418.988 282.908 432.948 C 282.883 433.219 282.735 433.359 282.456 433.367 L 270.927 433.654 Z" style=""/><path fill="#203a7e" d="M 254.866 418.529 C 256.13 423.045 257.066 427.972 257.665 433.317 C 256.992 433.4 256.426 433.416 255.965 433.375 C 248.116 432.653 242.696 432.102 239.699 431.724 C 237.539 431.445 235.035 430.723 232.825 430.369 C 211.294 426.97 191.382 419.325 173.087 407.451 C 168.447 404.437 164.111 400.775 159.759 397.112 C 163.068 398.148 166.254 399.371 169.341 400.784 C 172.437 402.195 174.942 403.231 176.871 403.888 C 180.715 405.185 183.252 406.088 184.508 406.589 C 189.871 408.708 195.028 409.914 201.054 411.688 C 203.518 412.411 205.752 412.994 207.78 413.437 C 223.169 416.804 238.861 418.496 254.866 418.529 Z" style=""/></svg>